# Blender v2.82 (sub 7) OBJ File: ''
# www.blender.org
o Arrow_Cylinder
v 0.000000 0.000000 -0.025000
v 0.000000 1.000000 -0.025000
v 0.004877 0.000000 -0.024520
v 0.004877 1.000000 -0.024520
v 0.009567 0.000000 -0.023097
v 0.009567 1.000000 -0.023097
v 0.013889 0.000000 -0.020787
v 0.013889 1.000000 -0.020787
v 0.017678 0.000000 -0.017678
v 0.017678 1.000000 -0.017678
v 0.020787 0.000000 -0.013889
v 0.020787 1.000000 -0.013889
v 0.023097 0.000000 -0.009567
v 0.023097 1.000000 -0.009567
v 0.024520 0.000000 -0.004877
v 0.024520 1.000000 -0.004877
v 0.025000 0.000000 -0.000000
v 0.025000 1.000000 -0.000000
v 0.024520 0.000000 0.004877
v 0.024520 1.000000 0.004877
v 0.023097 0.000000 0.009567
v 0.023097 1.000000 0.009567
v 0.020787 0.000000 0.013889
v 0.020787 1.000000 0.013889
v 0.017678 0.000000 0.017678
v 0.017678 1.000000 0.017678
v 0.013889 0.000000 0.020787
v 0.013889 1.000000 0.020787
v 0.009567 0.000000 0.023097
v 0.009567 1.000000 0.023097
v 0.004877 0.000000 0.024520
v 0.004877 1.000000 0.024520
v -0.000000 0.000000 0.025000
v -0.000000 1.000000 0.025000
v -0.004877 0.000000 0.024520
v -0.004877 1.000000 0.024520
v -0.009567 0.000000 0.023097
v -0.009567 1.000000 0.023097
v -0.013889 0.000000 0.020787
v -0.013889 1.000000 0.020787
v -0.017678 0.000000 0.017678
v -0.017678 1.000000 0.017678
v -0.020787 0.000000 0.013889
v -0.020787 1.000000 0.013889
v -0.023097 0.000000 0.009567
v -0.023097 1.000000 0.009567
v -0.024520 0.000000 0.004877
v -0.024520 1.000000 0.004877
v -0.025000 0.000000 -0.000000
v -0.025000 1.000000 -0.000000
v -0.024520 0.000000 -0.004877
v -0.024520 1.000000 -0.004877
v -0.023097 0.000000 -0.009567
v -0.023097 1.000000 -0.009567
v -0.020787 0.000000 -0.013889
v -0.020787 1.000000 -0.013889
v -0.017678 0.000000 -0.017678
v -0.017678 1.000000 -0.017678
v -0.013889 0.000000 -0.020787
v -0.013889 1.000000 -0.020787
v -0.009567 0.000000 -0.023097
v -0.009567 1.000000 -0.023097
v -0.004877 0.000000 -0.024520
v -0.004877 1.000000 -0.024520
v 0.000000 0.995298 -0.071589
v 0.013966 0.995298 -0.070213
v 0.027396 0.995298 -0.066139
v 0.039773 0.995298 -0.059524
v 0.050621 0.995298 -0.050621
v 0.059524 0.995298 -0.039773
v 0.066139 0.995298 -0.027396
v 0.070213 0.995298 -0.013967
v 0.071589 0.995298 -0.000000
v 0.070213 0.995298 0.013966
v 0.066139 0.995298 0.027396
v 0.059524 0.995298 0.039772
v 0.050621 0.995298 0.050621
v 0.039773 0.995298 0.059523
v 0.027396 0.995298 0.066139
v 0.013966 0.995298 0.070213
v 0.000000 0.995298 0.071588
v -0.013966 0.995298 0.070213
v -0.027396 0.995298 0.066139
v -0.039772 0.995298 0.059523
v -0.050621 0.995298 0.050620
v -0.059524 0.995298 0.039772
v -0.066139 0.995298 0.027395
v 0.000000 1.237762 -0.000000
v -0.070213 0.995298 0.013966
v -0.071588 0.995298 -0.000000
v -0.070213 0.995298 -0.013967
v -0.066139 0.995298 -0.027396
v -0.059524 0.995298 -0.039773
v -0.050621 0.995298 -0.050621
v -0.039772 0.995298 -0.059524
v -0.027396 0.995298 -0.066140
v -0.013966 0.995298 -0.070213
vt 1.000000 1.000000
vt 0.968750 0.500000
vt 1.000000 0.500000
vt 0.968750 1.000000
vt 0.937500 0.500000
vt 0.937500 1.000000
vt 0.906250 0.500000
vt 0.906250 1.000000
vt 0.875000 0.500000
vt 0.875000 1.000000
vt 0.843750 0.500000
vt 0.843750 1.000000
vt 0.812500 0.500000
vt 0.812500 1.000000
vt 0.781250 0.500000
vt 0.781250 1.000000
vt 0.750000 0.500000
vt 0.750000 1.000000
vt 0.718750 0.500000
vt 0.718750 1.000000
vt 0.687500 0.500000
vt 0.687500 1.000000
vt 0.656250 0.500000
vt 0.656250 1.000000
vt 0.625000 0.500000
vt 0.625000 1.000000
vt 0.593750 0.500000
vt 0.593750 1.000000
vt 0.562500 0.500000
vt 0.562500 1.000000
vt 0.531250 0.500000
vt 0.531250 1.000000
vt 0.500000 0.500000
vt 0.500000 1.000000
vt 0.468750 0.500000
vt 0.468750 1.000000
vt 0.437500 0.500000
vt 0.437500 1.000000
vt 0.406250 0.500000
vt 0.406250 1.000000
vt 0.375000 0.500000
vt 0.375000 1.000000
vt 0.343750 0.500000
vt 0.343750 1.000000
vt 0.312500 0.500000
vt 0.312500 1.000000
vt 0.281250 0.500000
vt 0.281250 1.000000
vt 0.250000 0.500000
vt 0.250000 1.000000
vt 0.218750 0.500000
vt 0.218750 1.000000
vt 0.187500 0.500000
vt 0.187500 1.000000
vt 0.156250 0.500000
vt 0.156250 1.000000
vt 0.125000 0.500000
vt 0.125000 1.000000
vt 0.093750 0.500000
vt 0.093750 1.000000
vt 0.062500 0.500000
vt 0.028269 0.341844
vt 0.158156 0.028269
vt 0.471731 0.158156
vt 0.062500 1.000000
vt 0.031250 0.500000
vt 0.031250 1.000000
vt 0.000000 0.500000
vt 0.985388 0.296822
vt 0.796822 0.014612
vt 0.514611 0.203179
vt 0.250000 0.490000
vt 0.250000 0.250000
vt 0.296822 0.485388
vt 0.341844 0.471731
vt 0.383337 0.449553
vt 0.419706 0.419706
vt 0.449553 0.383337
vt 0.471731 0.341844
vt 0.485388 0.296822
vt 0.490000 0.250000
vt 0.485388 0.203178
vt 0.471731 0.158156
vt 0.449553 0.116663
vt 0.419706 0.080294
vt 0.383337 0.050447
vt 0.341844 0.028269
vt 0.296822 0.014612
vt 0.250000 0.010000
vt 0.203178 0.014612
vt 0.158156 0.028269
vt 0.116663 0.050447
vt 0.080294 0.080294
vt 0.050447 0.116663
vt 0.028269 0.158156
vt 0.014611 0.203179
vt 0.010000 0.250000
vt 0.014612 0.296822
vt 0.028269 0.341844
vt 0.050447 0.383337
vt 0.080295 0.419706
vt 0.116663 0.449553
vt 0.158156 0.471731
vt 0.203179 0.485389
vt 0.796822 0.014612
vt 0.514611 0.203179
vt 0.703179 0.485389
vt 0.341844 0.471731
vt 0.296822 0.485388
vt 0.250000 0.490000
vt 0.203179 0.485389
vt 0.158156 0.471731
vt 0.116663 0.449553
vt 0.080295 0.419706
vt 0.050447 0.383337
vt 0.014612 0.296822
vt 0.010000 0.250000
vt 0.014611 0.203179
vt 0.028269 0.158156
vt 0.050447 0.116663
vt 0.080294 0.080294
vt 0.116663 0.050447
vt 0.203178 0.014612
vt 0.250000 0.010000
vt 0.296822 0.014612
vt 0.341844 0.028269
vt 0.383337 0.050447
vt 0.419706 0.080294
vt 0.449553 0.116663
vt 0.485388 0.203178
vt 0.490000 0.250000
vt 0.485388 0.296822
vt 0.471731 0.341844
vt 0.449553 0.383337
vt 0.419706 0.419706
vt 0.383337 0.449553
vt 0.000000 1.000000
vt 0.703179 0.485389
vt 0.750000 0.490000
vt 0.796822 0.485388
vt 0.841844 0.471731
vt 0.883337 0.449553
vt 0.919706 0.419706
vt 0.949553 0.383337
vt 0.971731 0.341844
vt 0.990000 0.250000
vt 0.985388 0.203178
vt 0.971731 0.158156
vt 0.949553 0.116663
vt 0.919706 0.080294
vt 0.883337 0.050447
vt 0.841844 0.028269
vt 0.750000 0.010000
vt 0.703178 0.014612
vt 0.658156 0.028269
vt 0.616663 0.050447
vt 0.580294 0.080294
vt 0.550447 0.116663
vt 0.528269 0.158156
vt 0.510000 0.250000
vt 0.514612 0.296822
vt 0.528269 0.341844
vt 0.550447 0.383337
vt 0.580295 0.419706
vt 0.616663 0.449553
vt 0.658156 0.471731
vt 0.750000 0.490000
vt 0.796822 0.485388
vt 0.841844 0.471731
vt 0.883337 0.449553
vt 0.919706 0.419706
vt 0.985388 0.296822
vt 0.949553 0.383337
vt 0.971731 0.341844
vt 0.990000 0.250000
vt 0.949553 0.116663
vt 0.985388 0.203178
vt 0.971731 0.158156
vt 0.919706 0.080294
vt 0.883337 0.050447
vt 0.841844 0.028269
vt 0.750000 0.010000
vt 0.703178 0.014612
vt 0.658156 0.028269
vt 0.616663 0.050447
vt 0.580294 0.080294
vt 0.550447 0.116663
vt 0.528269 0.158156
vt 0.510000 0.250000
vt 0.514612 0.296822
vt 0.528269 0.341844
vt 0.550447 0.383337
vt 0.580295 0.419706
vt 0.616663 0.449553
vt 0.658156 0.471731
vn 0.0980 0.0000 -0.9952
vn 0.2903 0.0000 -0.9569
vn 0.4714 0.0000 -0.8819
vn 0.6344 0.0000 -0.7730
vn 0.7730 0.0000 -0.6344
vn 0.8819 0.0000 -0.4714
vn 0.9569 0.0000 -0.2903
vn 0.9952 0.0000 -0.0980
vn 0.9952 0.0000 0.0980
vn 0.9569 0.0000 0.2903
vn 0.8819 0.0000 0.4714
vn 0.7730 0.0000 0.6344
vn 0.6344 0.0000 0.7730
vn 0.4714 0.0000 0.8819
vn 0.2903 0.0000 0.9569
vn 0.0980 0.0000 0.9952
vn -0.0980 0.0000 0.9952
vn -0.2903 0.0000 0.9569
vn -0.4714 0.0000 0.8819
vn -0.6344 0.0000 0.7730
vn -0.7730 0.0000 0.6344
vn -0.8819 0.0000 0.4714
vn -0.9569 0.0000 0.2903
vn -0.9952 0.0000 0.0980
vn -0.9952 0.0000 -0.0980
vn -0.9569 0.0000 -0.2903
vn -0.8819 0.0000 -0.4714
vn -0.7730 0.0000 -0.6344
vn -0.6344 0.0000 -0.7730
vn -0.4714 0.0000 -0.8819
vn 0.0000 1.0000 -0.0000
vn -0.2903 0.0000 -0.9569
vn -0.0980 0.0000 -0.9952
vn 0.0000 -1.0000 0.0000
vn 0.0940 0.2819 -0.9548
vn 0.2785 0.2819 -0.9181
vn 0.4523 0.2819 -0.8462
vn 0.6087 0.2819 -0.7417
vn 0.7417 0.2819 -0.6087
vn 0.8462 0.2819 -0.4523
vn 0.9181 0.2819 -0.2785
vn 0.9548 0.2819 -0.0940
vn 0.9548 0.2819 0.0940
vn 0.9181 0.2819 0.2785
vn 0.8462 0.2819 0.4523
vn 0.7417 0.2819 0.6087
vn 0.6087 0.2819 0.7417
vn 0.4523 0.2819 0.8462
vn 0.2785 0.2819 0.9181
vn 0.0940 0.2819 0.9548
vn -0.0940 0.2819 0.9548
vn -0.2785 0.2819 0.9181
vn -0.4523 0.2819 0.8461
vn -0.6087 0.2819 0.7417
vn -0.7417 0.2819 0.6087
vn -0.8461 0.2819 0.4523
vn -0.9181 0.2819 0.2785
vn -0.9548 0.2819 0.0940
vn -0.9548 0.2819 -0.0940
vn -0.9181 0.2819 -0.2785
vn -0.8461 0.2819 -0.4523
vn -0.7417 0.2819 -0.6087
vn -0.6087 0.2819 -0.7417
vn -0.4523 0.2819 -0.8462
vn -0.2785 0.2819 -0.9181
vn -0.0940 0.2819 -0.9548
vn 0.0000 1.0000 -0.0002
vn 0.0000 1.0000 0.0002
vn 0.0000 -1.0000 -0.0001
vn 0.0000 -1.0000 0.0001
s off
f 2/1/1 3/2/1 1/3/1
f 4/4/2 5/5/2 3/2/2
f 6/6/3 7/7/3 5/5/3
f 8/8/4 9/9/4 7/7/4
f 10/10/5 11/11/5 9/9/5
f 12/12/6 13/13/6 11/11/6
f 14/14/7 15/15/7 13/13/7
f 16/16/8 17/17/8 15/15/8
f 18/18/9 19/19/9 17/17/9
f 20/20/10 21/21/10 19/19/10
f 22/22/11 23/23/11 21/21/11
f 24/24/12 25/25/12 23/23/12
f 26/26/13 27/27/13 25/25/13
f 28/28/14 29/29/14 27/27/14
f 30/30/15 31/31/15 29/29/15
f 32/32/16 33/33/16 31/31/16
f 34/34/17 35/35/17 33/33/17
f 36/36/18 37/37/18 35/35/18
f 38/38/19 39/39/19 37/37/19
f 40/40/20 41/41/20 39/39/20
f 42/42/21 43/43/21 41/41/21
f 44/44/22 45/45/22 43/43/22
f 46/46/23 47/47/23 45/45/23
f 48/48/24 49/49/24 47/47/24
f 50/50/25 51/51/25 49/49/25
f 52/52/26 53/53/26 51/51/26
f 54/54/27 55/55/27 53/53/27
f 56/56/28 57/57/28 55/55/28
f 58/58/29 59/59/29 57/57/29
f 60/60/30 61/61/30 59/59/30
f 54/62/31 38/63/31 22/64/31
f 62/65/32 63/66/32 61/61/32
f 64/67/33 1/68/33 63/66/33
f 15/69/34 31/70/34 47/71/34
f 65/72/35 88/73/35 66/74/35
f 66/74/36 88/73/36 67/75/36
f 67/75/37 88/73/37 68/76/37
f 68/76/38 88/73/38 69/77/38
f 69/77/39 88/73/39 70/78/39
f 70/78/40 88/73/40 71/79/40
f 71/79/41 88/73/41 72/80/41
f 72/80/42 88/73/42 73/81/42
f 73/81/43 88/73/43 74/82/43
f 74/82/44 88/73/44 75/83/44
f 75/83/45 88/73/45 76/84/45
f 76/84/46 88/73/46 77/85/46
f 77/85/47 88/73/47 78/86/47
f 78/86/48 88/73/48 79/87/48
f 79/87/49 88/73/49 80/88/49
f 80/88/50 88/73/50 81/89/50
f 81/89/51 88/73/51 82/90/51
f 82/90/52 88/73/52 83/91/52
f 83/91/53 88/73/53 84/92/53
f 84/92/54 88/73/54 85/93/54
f 85/93/55 88/73/55 86/94/55
f 86/94/56 88/73/56 87/95/56
f 87/95/57 88/73/57 89/96/57
f 89/96/58 88/73/58 90/97/58
f 90/97/59 88/73/59 91/98/59
f 91/98/60 88/73/60 92/99/60
f 92/99/61 88/73/61 93/100/61
f 93/100/62 88/73/62 94/101/62
f 94/101/63 88/73/63 95/102/63
f 95/102/64 88/73/64 96/103/64
f 96/103/65 88/73/65 97/104/65
f 97/104/66 88/73/66 65/72/66
f 80/105/34 89/106/34 97/107/34
f 2/1/1 4/4/1 3/2/1
f 4/4/2 6/6/2 5/5/2
f 6/6/3 8/8/3 7/7/3
f 8/8/4 10/10/4 9/9/4
f 10/10/5 12/12/5 11/11/5
f 12/12/6 14/14/6 13/13/6
f 14/14/7 16/16/7 15/15/7
f 16/16/8 18/18/8 17/17/8
f 18/18/9 20/20/9 19/19/9
f 20/20/10 22/22/10 21/21/10
f 22/22/11 24/24/11 23/23/11
f 24/24/12 26/26/12 25/25/12
f 26/26/13 28/28/13 27/27/13
f 28/28/14 30/30/14 29/29/14
f 30/30/15 32/32/15 31/31/15
f 32/32/16 34/34/16 33/33/16
f 34/34/17 36/36/17 35/35/17
f 36/36/18 38/38/18 37/37/18
f 38/38/19 40/40/19 39/39/19
f 40/40/20 42/42/20 41/41/20
f 42/42/21 44/44/21 43/43/21
f 44/44/22 46/46/22 45/45/22
f 46/46/23 48/48/23 47/47/23
f 48/48/24 50/50/24 49/49/24
f 50/50/25 52/52/25 51/51/25
f 52/52/26 54/54/26 53/53/26
f 54/54/27 56/56/27 55/55/27
f 56/56/28 58/58/28 57/57/28
f 58/58/29 60/60/29 59/59/29
f 60/60/30 62/65/30 61/61/30
f 6/108/31 4/109/31 2/110/31
f 2/110/31 64/111/31 6/108/31
f 64/111/31 62/112/31 6/108/31
f 62/112/31 60/113/31 58/114/31
f 58/114/31 56/115/31 54/62/31
f 54/62/31 52/116/31 50/117/31
f 50/117/31 48/118/31 54/62/31
f 48/118/31 46/119/31 54/62/31
f 46/119/31 44/120/31 38/63/31
f 44/120/31 42/121/31 38/63/31
f 42/121/31 40/122/31 38/63/31
f 38/63/67 36/123/67 34/124/67
f 34/124/68 32/125/68 30/126/68
f 30/126/31 28/127/31 26/128/31
f 26/128/31 24/129/31 22/64/31
f 22/64/31 20/130/31 18/131/31
f 18/131/31 16/132/31 22/64/31
f 16/132/31 14/133/31 22/64/31
f 14/133/31 12/134/31 10/135/31
f 10/135/31 8/136/31 6/108/31
f 62/112/31 58/114/31 6/108/31
f 58/114/31 54/62/31 6/108/31
f 38/63/31 34/124/31 22/64/31
f 34/124/31 30/126/31 22/64/31
f 30/126/31 26/128/31 22/64/31
f 14/133/31 10/135/31 22/64/31
f 10/135/31 6/108/31 22/64/31
f 54/62/31 46/119/31 38/63/31
f 6/108/31 54/62/31 22/64/31
f 62/65/32 64/67/32 63/66/32
f 64/67/33 2/137/33 1/68/33
f 63/138/34 1/139/34 3/140/34
f 3/140/34 5/141/34 7/142/34
f 7/142/34 9/143/34 11/144/34
f 11/144/34 13/145/34 7/142/34
f 13/145/34 15/69/34 7/142/34
f 15/69/34 17/146/34 19/147/34
f 19/147/34 21/148/34 15/69/34
f 21/148/34 23/149/34 15/69/34
f 23/149/34 25/150/34 31/70/34
f 25/150/34 27/151/34 31/70/34
f 27/151/34 29/152/34 31/70/34
f 31/70/34 33/153/34 35/154/34
f 35/154/34 37/155/34 39/156/34
f 39/156/34 41/157/34 43/158/34
f 43/158/34 45/159/34 47/71/34
f 47/71/34 49/160/34 51/161/34
f 51/161/34 53/162/34 55/163/34
f 55/163/34 57/164/34 63/138/34
f 57/164/34 59/165/34 63/138/34
f 59/165/34 61/166/34 63/138/34
f 63/138/34 3/140/34 7/142/34
f 31/70/34 35/154/34 47/71/34
f 35/154/34 39/156/34 47/71/34
f 39/156/34 43/158/34 47/71/34
f 47/71/34 51/161/34 63/138/34
f 51/161/34 55/163/34 63/138/34
f 63/138/34 7/142/34 15/69/34
f 15/69/34 23/149/34 31/70/34
f 63/138/34 15/69/34 47/71/34
f 97/107/34 65/167/34 66/168/34
f 66/168/34 67/169/34 97/107/34
f 67/169/34 68/170/34 97/107/34
f 68/170/34 69/171/34 72/172/34
f 69/171/34 70/173/34 72/172/34
f 70/173/34 71/174/34 72/172/34
f 72/172/34 73/175/34 76/176/34
f 73/175/34 74/177/34 76/176/34
f 74/177/34 75/178/34 76/176/34
f 76/176/34 77/179/34 78/180/34
f 78/180/69 79/181/69 80/105/69
f 80/105/34 81/182/34 82/183/34
f 82/183/34 83/184/34 84/185/34
f 84/185/34 85/186/34 86/187/34
f 86/187/34 87/188/34 84/185/34
f 87/188/34 89/106/34 84/185/34
f 89/106/34 90/189/34 91/190/34
f 91/190/34 92/191/34 89/106/34
f 92/191/34 93/192/34 89/106/34
f 93/192/34 94/193/34 95/194/34
f 95/194/70 96/195/70 97/107/70
f 76/176/34 78/180/34 80/105/34
f 80/105/34 82/183/34 89/106/34
f 82/183/34 84/185/34 89/106/34
f 93/192/34 95/194/34 89/106/34
f 95/194/34 97/107/34 89/106/34
f 97/107/34 68/170/34 80/105/34
f 68/170/34 72/172/34 80/105/34
f 72/172/34 76/176/34 80/105/34
