# Blender v2.82 (sub 7) OBJ File: 'EditorAssets.blend'
# www.blender.org
o Cone
v -0.000000 3.963474 -0.176080
v 0.038805 3.963474 -0.172697
v 0.076118 3.963474 -0.162677
v 0.110507 3.963474 -0.146405
v 0.140648 3.963474 -0.124508
v 0.165385 3.963474 -0.097825
v 0.183766 3.963474 -0.067383
v 0.195085 3.963474 -0.034352
v 0.198907 3.963474 -0.000000
v 0.195085 3.963474 0.034351
v 0.183766 3.963474 0.067383
v 0.165385 3.963474 0.097825
v 0.140648 3.963474 0.124507
v 0.110507 3.963474 0.146405
v 0.076118 3.963474 0.162677
v 0.038805 3.963474 0.172697
v -0.000000 3.963474 0.176080
v -0.038805 3.963474 0.172697
v -0.076118 3.963474 0.162677
v -0.110507 3.963474 0.146405
v -0.140648 3.963474 0.124507
v -0.165385 3.963474 0.097825
v -0.183766 3.963474 0.067383
v -0.000000 4.739437 -0.000000
v -0.195085 3.963474 0.034351
v -0.198907 3.963474 -0.000000
v -0.195085 3.963474 -0.034352
v -0.183766 3.963474 -0.067383
v -0.165385 3.963474 -0.097825
v -0.140648 3.963474 -0.124508
v -0.110506 3.963474 -0.146406
v -0.076118 3.963474 -0.162677
v -0.038804 3.963474 -0.172697
v -0.000000 3.963474 -0.422688
v 0.093153 3.963474 -0.414566
v 0.182725 3.963474 -0.390513
v 0.265276 3.963474 -0.351452
v 0.337632 3.963474 -0.298886
v 0.397014 3.963474 -0.234833
v 0.441138 3.963474 -0.161756
v 0.468310 3.963474 -0.082462
v 0.477484 3.963474 -0.000000
v 0.468310 3.963474 0.082462
v 0.441138 3.963474 0.161756
v 0.397014 3.963474 0.234833
v 0.337632 3.963474 0.298885
v 0.265276 3.963474 0.351452
v 0.182725 3.963474 0.390513
v 0.093152 3.963474 0.414566
v -0.000000 3.963474 0.422688
v -0.093153 3.963474 0.414566
v -0.182726 3.963474 0.390513
v -0.265276 3.963474 0.351452
v -0.337633 3.963474 0.298885
v -0.397014 3.963474 0.234833
v -0.441138 3.963474 0.161755
v -0.468310 3.963474 0.082462
v -0.477484 3.963474 -0.000001
v -0.468309 3.963474 -0.082463
v -0.441138 3.963474 -0.161756
v -0.397013 3.963474 -0.234833
v -0.337632 3.963474 -0.298886
v -0.265276 3.963474 -0.351453
v -0.182725 3.963474 -0.390513
v -0.093152 3.963474 -0.414566
v -0.000000 0.018732 -0.176080
v 0.038805 0.018732 -0.172697
v 0.076118 0.018732 -0.162677
v 0.110507 0.018732 -0.146405
v 0.140648 0.018732 -0.124508
v 0.165385 0.018732 -0.097825
v 0.183766 0.018732 -0.067383
v 0.195085 0.018732 -0.034352
v 0.198907 0.018732 -0.000000
v 0.195085 0.018732 0.034351
v 0.183766 0.018732 0.067383
v 0.165385 0.018732 0.097825
v 0.140648 0.018732 0.124507
v 0.110507 0.018732 0.146405
v 0.076118 0.018732 0.162677
v 0.038805 0.018732 0.172697
v -0.000000 0.018732 0.176080
v -0.038805 0.018732 0.172697
v -0.076119 0.018732 0.162677
v -0.110507 0.018732 0.146405
v -0.140649 0.018732 0.124507
v -0.165385 0.018732 0.097825
v -0.183766 0.018732 0.067383
v -0.195085 0.018732 0.034351
v -0.198907 0.018732 -0.000000
v -0.195085 0.018732 -0.034352
v -0.183766 0.018732 -0.067383
v -0.165385 0.018732 -0.097825
v -0.140648 0.018732 -0.124508
v -0.110507 0.018732 -0.146406
v -0.076118 0.018732 -0.162677
v -0.038805 0.018732 -0.172697
vt 0.250000 0.490000
vt 0.250000 0.250000
vt 0.296822 0.485388
vt 0.341844 0.471731
vt 0.383337 0.449553
vt 0.419706 0.419706
vt 0.449553 0.383337
vt 0.471731 0.341844
vt 0.485388 0.296822
vt 0.490000 0.250000
vt 0.485388 0.203178
vt 0.471731 0.158156
vt 0.449553 0.116663
vt 0.419706 0.080294
vt 0.383337 0.050447
vt 0.341844 0.028269
vt 0.296822 0.014612
vt 0.250000 0.010000
vt 0.203178 0.014612
vt 0.158156 0.028269
vt 0.116663 0.050447
vt 0.080294 0.080294
vt 0.050447 0.116663
vt 0.028269 0.158156
vt 0.014611 0.203179
vt 0.010000 0.250000
vt 0.014612 0.296822
vt 0.028269 0.341844
vt 0.050447 0.383337
vt 0.080295 0.419706
vt 0.116663 0.449553
vt 0.158156 0.471731
vt 0.203179 0.485389
vt 0.750000 0.150023
vt 0.769505 0.151944
vt 0.769505 0.151944
vt 0.769505 0.348056
vt 0.750000 0.490000
vt 0.796822 0.485388
vt 0.788260 0.342367
vt 0.841844 0.471731
vt 0.805544 0.333128
vt 0.883337 0.449553
vt 0.820695 0.320695
vt 0.919706 0.419706
vt 0.833128 0.305544
vt 0.949553 0.383337
vt 0.842367 0.288260
vt 0.971731 0.341844
vt 0.848056 0.269505
vt 0.985388 0.296822
vt 0.849977 0.250000
vt 0.990000 0.250000
vt 0.985388 0.203178
vt 0.848056 0.230495
vt 0.971731 0.158156
vt 0.842367 0.211740
vt 0.949553 0.116663
vt 0.833128 0.194456
vt 0.919706 0.080294
vt 0.820695 0.179305
vt 0.883337 0.050447
vt 0.805544 0.166872
vt 0.841844 0.028269
vt 0.788260 0.157633
vt 0.796822 0.014612
vt 0.750000 0.010000
vt 0.730496 0.151944
vt 0.703178 0.014612
vt 0.711740 0.157633
vt 0.658156 0.028269
vt 0.694455 0.166872
vt 0.616663 0.050447
vt 0.679305 0.179305
vt 0.580294 0.080294
vt 0.666872 0.194456
vt 0.550447 0.116663
vt 0.657633 0.211740
vt 0.528269 0.158156
vt 0.651944 0.230495
vt 0.514611 0.203179
vt 0.650023 0.250000
vt 0.510000 0.250000
vt 0.514612 0.296822
vt 0.651944 0.269505
vt 0.528269 0.341844
vt 0.657633 0.288260
vt 0.550447 0.383337
vt 0.666872 0.305545
vt 0.580295 0.419706
vt 0.679306 0.320695
vt 0.616663 0.449553
vt 0.694456 0.333128
vt 0.658156 0.471731
vt 0.711740 0.342367
vt 0.703179 0.485389
vt 0.730496 0.348056
vt 0.750000 0.349977
vt 0.694456 0.333128
vt 0.711740 0.342367
vt 0.694455 0.166872
vt 0.788260 0.342367
vt 0.750000 0.150023
vt 0.820695 0.320695
vt 0.805544 0.333128
vt 0.730496 0.151944
vt 0.730496 0.348056
vt 0.711740 0.157633
vt 0.833128 0.305544
vt 0.842367 0.288260
vt 0.679305 0.179305
vt 0.848056 0.269505
vt 0.666872 0.194456
vt 0.849977 0.250000
vt 0.657633 0.211740
vt 0.848056 0.230495
vt 0.651944 0.230495
vt 0.842367 0.211740
vt 0.650023 0.250000
vt 0.833128 0.194456
vt 0.651944 0.269505
vt 0.820695 0.179305
vt 0.657633 0.288260
vt 0.805544 0.166872
vt 0.750000 0.349977
vt 0.666872 0.305545
vt 0.788260 0.157633
vt 0.769505 0.348056
vt 0.679306 0.320695
vn 0.0763 0.4770 -0.8756
vn 0.2275 0.4800 -0.8473
vn 0.3739 0.4857 -0.7901
vn 0.5112 0.4935 -0.7037
vn 0.6341 0.5023 -0.5879
vn 0.7359 0.5110 -0.4443
vn 0.8093 0.5179 -0.2773
vn 0.8479 0.5217 -0.0943
vn 0.8479 0.5217 0.0943
vn 0.8093 0.5179 0.2773
vn 0.7359 0.5110 0.4443
vn 0.6341 0.5023 0.5879
vn 0.5112 0.4935 0.7037
vn 0.3739 0.4857 0.7901
vn 0.2275 0.4800 0.8473
vn 0.0763 0.4770 0.8756
vn -0.0763 0.4770 0.8756
vn -0.2275 0.4800 0.8473
vn -0.3739 0.4857 0.7901
vn -0.5112 0.4935 0.7037
vn -0.6341 0.5023 0.5879
vn -0.7359 0.5110 0.4443
vn -0.8093 0.5179 0.2773
vn -0.8479 0.5217 0.0943
vn -0.8479 0.5217 -0.0943
vn -0.8093 0.5179 -0.2773
vn -0.7359 0.5110 -0.4443
vn -0.6341 0.5023 -0.5879
vn -0.5112 0.4935 -0.7037
vn -0.3739 0.4857 -0.7901
vn -0.2275 0.4800 -0.8473
vn -0.0763 0.4770 -0.8756
vn 0.0869 -0.0000 0.9962
vn 0.0000 -1.0000 -0.0000
vn 0.4277 -0.0000 -0.9039
vn -0.4277 0.0000 -0.9039
vn -0.0869 0.0000 0.9962
vn 0.5878 -0.0000 -0.8090
vn -0.2593 0.0000 -0.9658
vn -0.2593 0.0000 0.9658
vn 0.7333 -0.0000 -0.6799
vn -0.0869 0.0000 -0.9962
vn -0.4277 0.0000 0.9039
vn 0.8561 -0.0000 -0.5169
vn -0.5878 0.0000 0.8090
vn 0.9460 -0.0000 -0.3242
vn -0.7333 0.0000 0.6799
vn 0.9939 -0.0000 -0.1106
vn -0.8561 0.0000 0.5169
vn 0.9939 -0.0000 0.1106
vn -0.9460 0.0000 0.3242
vn 0.9460 -0.0000 0.3242
vn -0.9939 0.0000 0.1106
vn 0.8561 -0.0000 0.5169
vn -0.9939 0.0000 -0.1106
vn 0.7333 -0.0000 0.6799
vn -0.9460 0.0000 -0.3242
vn 0.5878 -0.0000 0.8090
vn -0.8561 0.0000 -0.5169
vn 0.4277 -0.0000 0.9039
vn 0.0869 -0.0000 -0.9962
vn -0.7333 0.0000 -0.6799
vn 0.2593 -0.0000 0.9658
vn 0.2593 -0.0000 -0.9658
vn -0.5878 0.0000 -0.8090
s off
f 34/1/1 24/2/1 35/3/1
f 35/3/2 24/2/2 36/4/2
f 36/4/3 24/2/3 37/5/3
f 37/5/4 24/2/4 38/6/4
f 38/6/5 24/2/5 39/7/5
f 39/7/6 24/2/6 40/8/6
f 40/8/7 24/2/7 41/9/7
f 41/9/8 24/2/8 42/10/8
f 42/10/9 24/2/9 43/11/9
f 43/11/10 24/2/10 44/12/10
f 44/12/11 24/2/11 45/13/11
f 45/13/12 24/2/12 46/14/12
f 46/14/13 24/2/13 47/15/13
f 47/15/14 24/2/14 48/16/14
f 48/16/15 24/2/15 49/17/15
f 49/17/16 24/2/16 50/18/16
f 50/18/17 24/2/17 51/19/17
f 51/19/18 24/2/18 52/20/18
f 52/20/19 24/2/19 53/21/19
f 53/21/20 24/2/20 54/22/20
f 54/22/21 24/2/21 55/23/21
f 55/23/22 24/2/22 56/24/22
f 56/24/23 24/2/23 57/25/23
f 57/25/24 24/2/24 58/26/24
f 58/26/25 24/2/25 59/27/25
f 59/27/26 24/2/26 60/28/26
f 60/28/27 24/2/27 61/29/27
f 61/29/28 24/2/28 62/30/28
f 62/30/29 24/2/29 63/31/29
f 63/31/30 24/2/30 64/32/30
f 64/32/31 24/2/31 65/33/31
f 65/33/32 24/2/32 34/1/32
f 17/34/33 81/35/33 16/36/33
f 2/37/34 34/38/34 35/39/34
f 3/40/34 35/39/34 36/41/34
f 4/42/34 36/41/34 37/43/34
f 5/44/34 37/43/34 38/45/34
f 6/46/34 38/45/34 39/47/34
f 7/48/34 39/47/34 40/49/34
f 8/50/34 40/49/34 41/51/34
f 9/52/34 41/51/34 42/53/34
f 9/52/34 43/54/34 10/55/34
f 10/55/34 44/56/34 11/57/34
f 11/57/34 45/58/34 12/59/34
f 12/59/34 46/60/34 13/61/34
f 13/61/34 47/62/34 14/63/34
f 14/63/34 48/64/34 15/65/34
f 15/65/34 49/66/34 16/36/34
f 16/36/34 50/67/34 17/34/34
f 18/68/34 50/67/34 51/69/34
f 19/70/34 51/69/34 52/71/34
f 20/72/34 52/71/34 53/73/34
f 21/74/34 53/73/34 54/75/34
f 22/76/34 54/75/34 55/77/34
f 23/78/34 55/77/34 56/79/34
f 25/80/34 56/79/34 57/81/34
f 26/82/34 57/81/34 58/83/34
f 26/82/34 59/84/34 27/85/34
f 27/85/34 60/86/34 28/87/34
f 28/87/34 61/88/34 29/89/34
f 29/89/34 62/90/34 30/91/34
f 30/91/34 63/92/34 31/93/34
f 31/93/34 64/94/34 32/95/34
f 32/95/34 65/96/34 33/97/34
f 33/97/34 34/38/34 1/98/34
f 95/99/34 96/100/34 85/101/34
f 4/42/35 68/102/35 3/40/35
f 32/95/36 95/99/36 31/93/36
f 18/68/37 82/103/37 17/34/37
f 4/42/38 70/104/38 69/105/38
f 33/97/39 96/100/39 32/95/39
f 19/70/40 83/106/40 18/68/40
f 6/46/41 70/104/41 5/44/41
f 1/98/42 97/107/42 33/97/42
f 20/72/43 84/108/43 19/70/43
f 7/48/44 71/109/44 6/46/44
f 21/74/45 85/101/45 20/72/45
f 8/50/46 72/110/46 7/48/46
f 22/76/47 86/111/47 21/74/47
f 9/52/48 73/112/48 8/50/48
f 23/78/49 87/113/49 22/76/49
f 10/55/50 74/114/50 9/52/50
f 25/80/51 88/115/51 23/78/51
f 11/57/52 75/116/52 10/55/52
f 26/82/53 89/117/53 25/80/53
f 12/59/54 76/118/54 11/57/54
f 27/85/55 90/119/55 26/82/55
f 13/61/56 77/120/56 12/59/56
f 28/87/57 91/121/57 27/85/57
f 14/63/58 78/122/58 13/61/58
f 29/89/59 92/123/59 28/87/59
f 15/65/60 79/124/60 14/63/60
f 2/37/61 66/125/61 1/98/61
f 30/91/62 93/126/62 29/89/62
f 16/36/63 80/127/63 15/65/63
f 3/40/64 67/128/64 2/37/64
f 31/93/65 94/129/65 30/91/65
f 17/34/33 82/103/33 81/35/33
f 2/37/34 1/98/34 34/38/34
f 3/40/34 2/37/34 35/39/34
f 4/42/34 3/40/34 36/41/34
f 5/44/34 4/42/34 37/43/34
f 6/46/34 5/44/34 38/45/34
f 7/48/34 6/46/34 39/47/34
f 8/50/34 7/48/34 40/49/34
f 9/52/34 8/50/34 41/51/34
f 9/52/34 42/53/34 43/54/34
f 10/55/34 43/54/34 44/56/34
f 11/57/34 44/56/34 45/58/34
f 12/59/34 45/58/34 46/60/34
f 13/61/34 46/60/34 47/62/34
f 14/63/34 47/62/34 48/64/34
f 15/65/34 48/64/34 49/66/34
f 16/36/34 49/66/34 50/67/34
f 18/68/34 17/34/34 50/67/34
f 19/70/34 18/68/34 51/69/34
f 20/72/34 19/70/34 52/71/34
f 21/74/34 20/72/34 53/73/34
f 22/76/34 21/74/34 54/75/34
f 23/78/34 22/76/34 55/77/34
f 25/80/34 23/78/34 56/79/34
f 26/82/34 25/80/34 57/81/34
f 26/82/34 58/83/34 59/84/34
f 27/85/34 59/84/34 60/86/34
f 28/87/34 60/86/34 61/88/34
f 29/89/34 61/88/34 62/90/34
f 30/91/34 62/90/34 63/92/34
f 31/93/34 63/92/34 64/94/34
f 32/95/34 64/94/34 65/96/34
f 33/97/34 65/96/34 34/38/34
f 97/107/34 66/125/34 82/103/34
f 66/125/34 67/128/34 81/35/34
f 67/128/34 68/102/34 81/35/34
f 68/102/34 69/105/34 80/127/34
f 81/35/34 68/102/34 80/127/34
f 69/105/34 70/104/34 78/122/34
f 70/104/34 71/109/34 77/120/34
f 71/109/34 72/110/34 77/120/34
f 72/110/34 73/112/34 76/118/34
f 77/120/34 72/110/34 76/118/34
f 73/112/34 74/114/34 75/116/34
f 75/116/34 76/118/34 73/112/34
f 77/120/34 78/122/34 70/104/34
f 78/122/34 79/124/34 69/105/34
f 79/124/34 80/127/34 69/105/34
f 81/35/34 82/103/34 66/125/34
f 82/103/34 83/106/34 97/107/34
f 83/106/34 84/108/34 97/107/34
f 84/108/34 85/101/34 96/100/34
f 97/107/34 84/108/34 96/100/34
f 85/101/34 86/111/34 94/129/34
f 86/111/34 87/113/34 93/126/34
f 87/113/34 88/115/34 93/126/34
f 88/115/34 89/117/34 92/123/34
f 93/126/34 88/115/34 92/123/34
f 89/117/34 90/119/34 91/121/34
f 91/121/34 92/123/34 89/117/34
f 93/126/34 94/129/34 86/111/34
f 94/129/34 95/99/34 85/101/34
f 4/42/35 69/105/35 68/102/35
f 32/95/36 96/100/36 95/99/36
f 18/68/37 83/106/37 82/103/37
f 4/42/38 5/44/38 70/104/38
f 33/97/39 97/107/39 96/100/39
f 19/70/40 84/108/40 83/106/40
f 6/46/41 71/109/41 70/104/41
f 1/98/42 66/125/42 97/107/42
f 20/72/43 85/101/43 84/108/43
f 7/48/44 72/110/44 71/109/44
f 21/74/45 86/111/45 85/101/45
f 8/50/46 73/112/46 72/110/46
f 22/76/47 87/113/47 86/111/47
f 9/52/48 74/114/48 73/112/48
f 23/78/49 88/115/49 87/113/49
f 10/55/50 75/116/50 74/114/50
f 25/80/51 89/117/51 88/115/51
f 11/57/52 76/118/52 75/116/52
f 26/82/53 90/119/53 89/117/53
f 12/59/54 77/120/54 76/118/54
f 27/85/55 91/121/55 90/119/55
f 13/61/56 78/122/56 77/120/56
f 28/87/57 92/123/57 91/121/57
f 14/63/58 79/124/58 78/122/58
f 29/89/59 93/126/59 92/123/59
f 15/65/60 80/127/60 79/124/60
f 2/37/61 67/128/61 66/125/61
f 30/91/62 94/129/62 93/126/62
f 16/36/63 81/35/63 80/127/63
f 3/40/64 68/102/64 67/128/64
f 31/93/65 95/99/65 94/129/65
