# Blender v2.82 (sub 7) OBJ File: ''
# www.blender.org
mtllib Wabble_Table.mtl
o Wabble_Table
v -3.661639 -0.000001 4.070525
v -4.595149 -0.000001 4.070525
v -3.661639 -0.000001 3.137015
v -4.595149 -0.000001 4.070525
v -4.595149 -0.000001 3.137015
v -3.661639 -0.000001 3.137015
v -3.493147 8.634971 2.837583
v -4.426657 8.634971 2.837583
v -4.426657 8.634970 3.771094
v -3.493147 8.634971 2.837583
v -4.426657 8.634970 3.771094
v -3.493147 8.634970 3.771094
v 4.593421 9.338774 2.118117
v -4.830212 8.545858 2.021303
v -4.830212 9.338826 2.118074
v -4.830212 8.545858 2.021303
v 4.593421 9.338774 2.118117
v 4.593421 8.545805 2.021346
v -4.830218 9.311865 4.047214
v -4.830212 9.338826 2.118074
v -4.830212 8.545858 2.021303
v -4.830218 9.311865 4.047214
v -4.830212 8.545858 2.021303
v -4.830221 8.514101 4.132806
v -4.830221 8.514099 0.042216
v 4.593421 8.545803 -2.069244
v 4.593411 8.514047 0.042259
v 4.593421 8.545803 -2.069244
v -4.830221 8.514099 0.042216
v -4.830212 8.545856 -2.069287
v -4.830218 9.311864 -0.043377
v 4.593421 9.338772 -1.972473
v -4.830211 9.338824 -1.972516
v 4.593421 9.338772 -1.972473
v -4.830218 9.311864 -0.043377
v 4.593414 9.311812 -0.043334
v 4.593412 9.311814 -2.113744
v -4.830223 8.514105 -2.028192
v 4.593410 8.514050 -2.028151
v -4.830223 8.514105 -2.028192
v 4.593412 9.311814 -2.113744
v -4.830221 9.311868 -2.113786
v 4.593412 9.311814 -2.113744
v 4.593419 8.545805 -4.139653
v 4.593420 9.338773 -4.042883
v 4.593419 8.545805 -4.139653
v 4.593412 9.311814 -2.113744
v 4.593410 8.514050 -2.028151
v 3.578580 0.000001 -3.137015
v 3.400470 4.317486 -3.818713
v 3.578580 0.000001 -4.070525
v 3.400470 4.317486 -3.818713
v 3.578580 0.000001 -3.137015
v 3.400470 4.317486 -2.885203
v 3.400470 4.317486 -2.885203
v 3.410088 8.634972 -3.771091
v 3.400470 4.317486 -3.818713
v 3.410088 8.634972 -3.771091
v 3.400470 4.317486 -2.885203
v 3.410088 8.634971 -2.837580
v -4.595149 0.000001 -3.137015
v -4.417039 4.317486 -3.818713
v -4.595149 0.000001 -4.070525
v -4.417039 4.317486 -3.818713
v -4.595149 0.000001 -3.137015
v -4.417039 4.317486 -2.885203
v -4.417039 4.317486 -2.885203
v -4.426657 8.634972 -3.771091
v -4.417039 4.317486 -3.818713
v -4.426657 8.634972 -3.771091
v -4.417039 4.317486 -2.885203
v -4.426657 8.634971 -2.837580
v 4.333981 4.317485 3.818715
v 3.578580 -0.000001 4.070525
v 4.512090 -0.000001 4.070525
v 3.400470 4.317485 3.818715
v 3.578580 -0.000001 4.070525
v 4.333981 4.317485 3.818715
v 4.333981 4.317485 3.818715
v 3.410088 8.634970 3.771094
v 3.400470 4.317485 3.818715
v 3.410088 8.634970 3.771094
v 4.333981 4.317485 3.818715
v 4.343598 8.634970 3.771094
v 4.333981 4.317486 -2.885203
v 3.578580 0.000001 -3.137015
v 4.512090 0.000001 -3.137015
v 3.578580 0.000001 -3.137015
v 4.333981 4.317486 -2.885203
v 3.400470 4.317486 -2.885203
v 4.333981 4.317486 -2.885203
v 3.410088 8.634971 -2.837580
v 3.400470 4.317486 -2.885203
v 3.410088 8.634971 -2.837580
v 4.333981 4.317486 -2.885203
v 4.343598 8.634971 -2.837580
v 3.578580 -0.000001 4.070525
v 3.578580 -0.000001 3.137015
v 4.512090 -0.000001 4.070525
v -3.661639 0.000001 -3.137015
v -4.595149 0.000001 -4.070525
v -3.661639 0.000001 -4.070525
v 4.593414 9.311812 4.047256
v -4.830221 8.514101 4.132806
v 4.593411 8.514048 4.132849
v -4.642457 8.545856 -0.026418
v 4.781177 9.338772 0.070393
v 4.781177 8.545804 -0.026377
v 4.593421 9.338772 -1.972473
v -4.830212 8.545856 -2.069287
v -4.830211 9.338824 -1.972516
v 4.593419 8.545805 -4.139653
v -4.830223 8.514105 -2.028192
v -4.830214 8.545858 -4.139694
v -3.661639 -0.000001 3.137015
v -3.483529 4.317485 3.818715
v -3.661639 -0.000001 4.070525
v 3.400470 4.317485 2.885204
v 3.578580 -0.000001 3.137015
v 3.400470 4.317485 3.818715
v 4.512090 -0.000001 4.070525
v 3.578580 -0.000001 3.137015
v 4.512090 -0.000001 3.137015
v 3.578580 0.000001 -3.137015
v 4.512090 0.000001 -4.070525
v 4.512090 0.000001 -3.137015
v 4.512090 0.000001 -4.070525
v 3.578580 0.000001 -3.137015
v 3.578580 0.000001 -4.070525
v -3.661639 0.000001 -3.137015
v -4.595149 0.000001 -3.137015
v -4.595149 0.000001 -4.070525
v -4.830221 8.514101 4.132806
v 4.593421 8.545805 2.021346
v 4.593411 8.514048 4.132849
v 4.593421 8.545805 2.021346
v -4.830221 8.514101 4.132806
v -4.830212 8.545858 2.021303
v -4.830221 8.514101 4.132806
v 4.593414 9.311812 4.047256
v -4.830218 9.311865 4.047214
v -4.642457 8.545856 -0.026418
v 4.781167 8.514050 2.085125
v -4.642466 8.514104 2.085084
v 4.781167 8.514050 2.085125
v -4.642457 8.545856 -0.026418
v 4.781177 8.545804 -0.026377
v 4.781177 9.338772 0.070393
v -4.642457 8.545856 -0.026418
v -4.642456 9.338825 0.070352
v 4.781170 9.311813 1.999532
v -4.642466 8.514104 2.085084
v 4.781167 8.514050 2.085125
v -4.642466 8.514104 2.085084
v 4.781170 9.311813 1.999532
v -4.642463 9.311867 1.999491
v -4.830212 8.545856 -2.069287
v 4.593421 9.338772 -1.972473
v 4.593421 8.545803 -2.069244
v 4.593414 9.311812 -0.043334
v -4.830221 8.514099 0.042216
v 4.593411 8.514047 0.042259
v -4.830221 8.514099 0.042216
v 4.593414 9.311812 -0.043334
v -4.830218 9.311864 -0.043377
v -4.830223 8.514105 -2.028192
v 4.593419 8.545805 -4.139653
v 4.593410 8.514050 -2.028151
v 4.593420 9.338773 -4.042883
v -4.830214 8.545858 -4.139694
v -4.830214 9.338827 -4.042924
v -4.830214 8.545858 -4.139694
v 4.593420 9.338773 -4.042883
v 4.593419 8.545805 -4.139653
v -3.483529 4.317485 3.818715
v -3.661639 -0.000001 3.137015
v -3.483529 4.317485 2.885204
v -4.417039 4.317485 3.818715
v -4.595149 -0.000001 3.137015
v -4.595149 -0.000001 4.070525
v -4.595149 -0.000001 3.137015
v -4.417039 4.317485 3.818715
v -4.417039 4.317485 2.885204
v 3.400470 4.317485 3.818715
v 3.578580 -0.000001 3.137015
v 3.578580 -0.000001 4.070525
v 4.512090 -0.000001 3.137015
v 4.333981 4.317485 3.818715
v 4.512090 -0.000001 4.070525
v 4.333981 4.317485 3.818715
v 4.512090 -0.000001 3.137015
v 4.333981 4.317485 2.885204
v 4.333981 4.317486 -3.818713
v 4.512090 0.000001 -3.137015
v 4.512090 0.000001 -4.070525
v 4.512090 0.000001 -3.137015
v 4.333981 4.317486 -3.818713
v 4.333981 4.317486 -2.885203
v -3.483529 4.317486 -3.818713
v -3.661639 0.000001 -3.137015
v -3.661639 0.000001 -4.070525
v -3.483529 4.317486 -2.885203
v -3.661639 0.000001 -3.137015
v -3.483529 4.317486 -3.818713
v -3.661639 -0.000001 4.070525
v -4.417039 4.317485 3.818715
v -4.595149 -0.000001 4.070525
v -4.417039 4.317485 3.818715
v -3.661639 -0.000001 4.070525
v -3.483529 4.317485 3.818715
v -4.417039 4.317485 2.885204
v -3.661639 -0.000001 3.137015
v -4.595149 -0.000001 3.137015
v -3.661639 -0.000001 3.137015
v -4.417039 4.317485 2.885204
v -3.483529 4.317485 2.885204
v 3.578580 -0.000001 3.137015
v 4.333981 4.317485 2.885204
v 4.512090 -0.000001 3.137015
v 4.333981 4.317485 2.885204
v 3.578580 -0.000001 3.137015
v 3.400470 4.317485 2.885204
v 3.578580 0.000001 -4.070525
v 4.333981 4.317486 -3.818713
v 4.512090 0.000001 -4.070525
v 4.333981 4.317486 -3.818713
v 3.578580 0.000001 -4.070525
v 3.400470 4.317486 -3.818713
v -4.417039 4.317486 -3.818713
v -3.661639 0.000001 -4.070525
v -4.595149 0.000001 -4.070525
v -3.483529 4.317486 -3.818713
v -3.661639 0.000001 -4.070525
v -4.417039 4.317486 -3.818713
v -3.661639 0.000001 -3.137015
v -4.417039 4.317486 -2.885203
v -4.595149 0.000001 -3.137015
v -4.417039 4.317486 -2.885203
v -3.661639 0.000001 -3.137015
v -3.483529 4.317486 -2.885203
v 3.410088 8.634971 2.837583
v 4.343598 8.634970 3.771094
v 4.343598 8.634971 2.837583
v 3.410088 8.634972 -3.771091
v 3.410088 8.634971 -2.837580
v 4.343598 8.634972 -3.771091
v 4.593421 9.338774 2.118117
v -4.830218 9.311865 4.047214
v 4.593414 9.311812 4.047256
v 4.593414 9.311812 4.047256
v 4.593421 8.545805 2.021346
v 4.593421 9.338774 2.118117
v -4.642463 9.311867 1.999491
v 4.781177 9.338772 0.070393
v -4.642456 9.338825 0.070352
v 4.781177 8.545804 -0.026377
v 4.781170 9.311813 1.999532
v 4.781167 8.514050 2.085125
v -4.830218 9.311864 -0.043377
v -4.830211 9.338824 -1.972516
v -4.830212 8.545856 -2.069287
v 4.593414 9.311812 -0.043334
v 4.593421 8.545803 -2.069244
v 4.593421 9.338772 -1.972473
v -4.830221 9.311868 -2.113786
v -4.830214 8.545858 -4.139694
v -4.830223 8.514105 -2.028192
v -3.483529 4.317485 2.885204
v -3.493147 8.634970 3.771094
v -3.483529 4.317485 3.818715
v -4.426657 8.634970 3.771094
v -4.417039 4.317485 2.885204
v -4.417039 4.317485 3.818715
v 4.343598 8.634970 3.771094
v 4.333981 4.317485 2.885204
v 4.343598 8.634971 2.837583
v 4.343598 8.634970 3.771094
v 3.410088 8.634971 2.837583
v 3.410088 8.634970 3.771094
v 4.343598 8.634972 -3.771091
v 3.410088 8.634971 -2.837580
v 4.343598 8.634971 -2.837580
v -3.493147 8.634972 -3.771091
v -4.426657 8.634972 -3.771091
v -3.493147 8.634971 -2.837580
v -4.426657 8.634972 -3.771091
v -4.426657 8.634971 -2.837580
v -3.493147 8.634971 -2.837580
v -4.830218 9.311865 4.047214
v 4.593421 9.338774 2.118117
v -4.830212 9.338826 2.118074
v 4.593421 8.545805 2.021346
v 4.593414 9.311812 4.047256
v 4.593411 8.514048 4.132849
v 4.781177 9.338772 0.070393
v -4.642463 9.311867 1.999491
v 4.781170 9.311813 1.999532
v -4.642463 9.311867 1.999491
v -4.642456 9.338825 0.070352
v -4.642457 8.545856 -0.026418
v -4.642463 9.311867 1.999491
v -4.642457 8.545856 -0.026418
v -4.642466 8.514104 2.085084
v 4.781170 9.311813 1.999532
v 4.781177 8.545804 -0.026377
v 4.781177 9.338772 0.070393
v -4.830218 9.311864 -0.043377
v -4.830212 8.545856 -2.069287
v -4.830221 8.514099 0.042216
v 4.593421 8.545803 -2.069244
v 4.593414 9.311812 -0.043334
v 4.593411 8.514047 0.042259
v -4.830221 9.311868 -2.113786
v 4.593420 9.338773 -4.042883
v -4.830214 9.338827 -4.042924
v 4.593420 9.338773 -4.042883
v -4.830221 9.311868 -2.113786
v 4.593412 9.311814 -2.113744
v -4.830221 9.311868 -2.113786
v -4.830214 9.338827 -4.042924
v -4.830214 8.545858 -4.139694
v -3.493147 8.634970 3.771094
v -3.483529 4.317485 2.885204
v -3.493147 8.634971 2.837583
v -4.426657 8.634971 2.837583
v -4.417039 4.317485 2.885204
v -4.426657 8.634970 3.771094
v 3.410088 8.634970 3.771094
v 3.400470 4.317485 2.885204
v 3.400470 4.317485 3.818715
v 3.400470 4.317485 2.885204
v 3.410088 8.634970 3.771094
v 3.410088 8.634971 2.837583
v 4.333981 4.317485 2.885204
v 4.343598 8.634970 3.771094
v 4.333981 4.317485 3.818715
v 4.343598 8.634972 -3.771091
v 4.333981 4.317486 -2.885203
v 4.333981 4.317486 -3.818713
v 4.343598 8.634971 -2.837580
v 4.333981 4.317486 -2.885203
v 4.343598 8.634972 -3.771091
v -3.493147 8.634972 -3.771091
v -3.483529 4.317486 -2.885203
v -3.483529 4.317486 -3.818713
v -3.483529 4.317486 -2.885203
v -3.493147 8.634972 -3.771091
v -3.493147 8.634971 -2.837580
v -3.493147 8.634970 3.771094
v -4.417039 4.317485 3.818715
v -3.483529 4.317485 3.818715
v -4.426657 8.634970 3.771094
v -4.417039 4.317485 3.818715
v -3.493147 8.634970 3.771094
v -4.417039 4.317485 2.885204
v -3.493147 8.634971 2.837583
v -3.483529 4.317485 2.885204
v -3.493147 8.634971 2.837583
v -4.417039 4.317485 2.885204
v -4.426657 8.634971 2.837583
v 3.410088 8.634971 2.837583
v 4.333981 4.317485 2.885204
v 3.400470 4.317485 2.885204
v 4.333981 4.317485 2.885204
v 3.410088 8.634971 2.837583
v 4.343598 8.634971 2.837583
v 3.410088 8.634972 -3.771091
v 4.333981 4.317486 -3.818713
v 3.400470 4.317486 -3.818713
v 4.343598 8.634972 -3.771091
v 4.333981 4.317486 -3.818713
v 3.410088 8.634972 -3.771091
v -4.417039 4.317486 -3.818713
v -3.493147 8.634972 -3.771091
v -3.483529 4.317486 -3.818713
v -3.493147 8.634972 -3.771091
v -4.417039 4.317486 -3.818713
v -4.426657 8.634972 -3.771091
v -3.493147 8.634971 -2.837580
v -4.417039 4.317486 -2.885203
v -3.483529 4.317486 -2.885203
v -4.417039 4.317486 -2.885203
v -3.493147 8.634971 -2.837580
v -4.426657 8.634971 -2.837580
vt 0.741211 0.956177
vt 0.741211 0.996450
vt 0.700684 0.956177
vt 0.741211 0.996450
vt 0.700684 0.996450
vt 0.700684 0.956177
vt 0.822754 0.537598
vt 0.822754 0.578613
vt 0.782227 0.578613
vt 0.822754 0.537598
vt 0.782227 0.578613
vt 0.782227 0.537598
vt 0.901367 0.894287
vt 0.870117 0.526855
vt 0.901367 0.526855
vt 0.870117 0.526855
vt 0.901367 0.894287
vt 0.870117 0.894287
vt 0.901367 0.424316
vt 0.901367 0.526855
vt 0.870117 0.526855
vt 0.901367 0.424316
vt 0.870117 0.526855
vt 0.870117 0.424316
vt 0.278564 0.628418
vt 0.376953 0.995567
vt 0.278564 0.995567
vt 0.376953 0.995567
vt 0.278564 0.628418
vt 0.376953 0.628418
vt 0.376953 0.628418
vt 0.278564 0.995567
vt 0.278564 0.628418
vt 0.278564 0.995567
vt 0.376953 0.628418
vt 0.376953 0.995567
vt 0.901367 0.056641
vt 0.870117 0.424316
vt 0.870117 0.056641
vt 0.870117 0.424316
vt 0.901367 0.056641
vt 0.901367 0.424316
vt 0.901367 0.996140
vt 0.870117 0.894287
vt 0.901367 0.894287
vt 0.870117 0.894287
vt 0.901367 0.996140
vt 0.870117 0.996140
vt 0.700684 0.578613
vt 0.741211 0.767456
vt 0.741211 0.578613
vt 0.741211 0.767456
vt 0.700684 0.578613
vt 0.700684 0.767456
vt 0.700684 0.767456
vt 0.741211 0.956177
vt 0.741211 0.767456
vt 0.741211 0.956177
vt 0.700684 0.767456
vt 0.700684 0.956177
vt 0.822754 0.956177
vt 0.782227 0.767456
vt 0.782227 0.956177
vt 0.782227 0.767456
vt 0.822754 0.956177
vt 0.822754 0.767456
vt 0.822754 0.767456
vt 0.782227 0.578613
vt 0.782227 0.767456
vt 0.782227 0.578613
vt 0.822754 0.767456
vt 0.822754 0.578613
vt 0.782227 0.767456
vt 0.741211 0.578613
vt 0.782227 0.578613
vt 0.741211 0.767456
vt 0.741211 0.578613
vt 0.782227 0.767456
vt 0.782227 0.767456
vt 0.741211 0.956177
vt 0.741211 0.767456
vt 0.741211 0.956177
vt 0.782227 0.767456
vt 0.782227 0.956177
vt 0.822754 0.767456
vt 0.863770 0.578613
vt 0.822754 0.578613
vt 0.863770 0.578613
vt 0.822754 0.767456
vt 0.863770 0.767456
vt 0.822754 0.767456
vt 0.863770 0.956177
vt 0.863770 0.767456
vt 0.863770 0.956177
vt 0.822754 0.767456
vt 0.822754 0.956177
vt 0.782227 0.537598
vt 0.822754 0.537598
vt 0.782227 0.578613
vt 0.700684 0.956177
vt 0.741211 0.996450
vt 0.741211 0.956177
vt 0.901367 0.056641
vt 0.870117 0.424316
vt 0.870117 0.056641
vt 0.870117 0.526855
vt 0.901367 0.894287
vt 0.870117 0.894287
vt 0.901367 0.894287
vt 0.870117 0.526855
vt 0.901367 0.526855
vt 0.376953 0.995567
vt 0.278564 0.628418
vt 0.376953 0.628418
vt 0.700684 0.956177
vt 0.741211 0.767456
vt 0.741211 0.956177
vt 0.700684 0.767456
vt 0.700684 0.578613
vt 0.741211 0.767456
vt 0.782227 0.578613
vt 0.822754 0.537598
vt 0.822754 0.578613
vt 0.822754 0.537598
vt 0.782227 0.578613
vt 0.822754 0.578613
vt 0.782227 0.578613
vt 0.822754 0.537598
vt 0.782227 0.537598
vt 0.700684 0.956177
vt 0.700684 0.996450
vt 0.741211 0.996450
vt 0.278564 0.628418
vt 0.376953 0.995567
vt 0.278564 0.995567
vt 0.376953 0.995567
vt 0.278564 0.628418
vt 0.376953 0.628418
vt 0.870117 0.424316
vt 0.901367 0.056641
vt 0.901367 0.424316
vt 0.376953 0.628418
vt 0.278564 0.995567
vt 0.278564 0.628418
vt 0.278564 0.995567
vt 0.376953 0.628418
vt 0.376953 0.995567
vt 0.901367 0.894287
vt 0.870117 0.526855
vt 0.901367 0.526855
vt 0.901367 0.056641
vt 0.870117 0.424316
vt 0.870117 0.056641
vt 0.870117 0.424316
vt 0.901367 0.056641
vt 0.901367 0.424316
vt 0.870117 0.526855
vt 0.901367 0.894287
vt 0.870117 0.894287
vt 0.901367 0.056641
vt 0.870117 0.424316
vt 0.870117 0.056641
vt 0.870117 0.424316
vt 0.901367 0.056641
vt 0.901367 0.424316
vt 0.278564 0.628418
vt 0.376953 0.995567
vt 0.278564 0.995567
vt 0.901367 0.894287
vt 0.870117 0.526855
vt 0.901367 0.526855
vt 0.870117 0.526855
vt 0.901367 0.894287
vt 0.870117 0.894287
vt 0.741211 0.767456
vt 0.700684 0.956177
vt 0.700684 0.767456
vt 0.782227 0.767456
vt 0.822754 0.956177
vt 0.782227 0.956177
vt 0.822754 0.956177
vt 0.782227 0.767456
vt 0.822754 0.767456
vt 0.741211 0.767456
vt 0.700684 0.578613
vt 0.741211 0.578613
vt 0.822754 0.578613
vt 0.782227 0.767456
vt 0.782227 0.578613
vt 0.782227 0.767456
vt 0.822754 0.578613
vt 0.822754 0.767456
vt 0.782227 0.767456
vt 0.822754 0.578613
vt 0.782227 0.578613
vt 0.822754 0.578613
vt 0.782227 0.767456
vt 0.822754 0.767456
vt 0.741211 0.767456
vt 0.700684 0.956177
vt 0.741211 0.956177
vt 0.700684 0.767456
vt 0.700684 0.956177
vt 0.741211 0.767456
vt 0.741211 0.956177
vt 0.782227 0.767456
vt 0.782227 0.956177
vt 0.782227 0.767456
vt 0.741211 0.956177
vt 0.741211 0.767456
vt 0.822754 0.767456
vt 0.863770 0.956177
vt 0.822754 0.956177
vt 0.863770 0.956177
vt 0.822754 0.767456
vt 0.863770 0.767456
vt 0.863770 0.578613
vt 0.822754 0.767456
vt 0.822754 0.578613
vt 0.822754 0.767456
vt 0.863770 0.578613
vt 0.863770 0.767456
vt 0.741211 0.578613
vt 0.782227 0.767456
vt 0.782227 0.578613
vt 0.782227 0.767456
vt 0.741211 0.578613
vt 0.741211 0.767456
vt 0.782227 0.767456
vt 0.741211 0.956177
vt 0.782227 0.956177
vt 0.741211 0.767456
vt 0.741211 0.956177
vt 0.782227 0.767456
vt 0.863770 0.956177
vt 0.822754 0.767456
vt 0.822754 0.956177
vt 0.822754 0.767456
vt 0.863770 0.956177
vt 0.863770 0.767456
vt 0.700684 0.956177
vt 0.741211 0.996450
vt 0.700684 0.996450
vt 0.741211 0.956177
vt 0.700684 0.956177
vt 0.741211 0.996450
vt 0.278564 0.995567
vt 0.376953 0.628418
vt 0.376953 0.995567
vt 0.901367 0.996140
vt 0.870117 0.894287
vt 0.901367 0.894287
vt 0.376953 0.628418
vt 0.278564 0.995567
vt 0.278564 0.628418
vt 0.870117 0.894287
vt 0.901367 0.996140
vt 0.870117 0.996140
vt 0.901367 0.424316
vt 0.901367 0.526855
vt 0.870117 0.526855
vt 0.901367 0.996140
vt 0.870117 0.894287
vt 0.901367 0.894287
vt 0.901367 0.424316
vt 0.870117 0.526855
vt 0.870117 0.424316
vt 0.700684 0.767456
vt 0.741211 0.578613
vt 0.741211 0.767456
vt 0.782227 0.578613
vt 0.822754 0.767456
vt 0.782227 0.767456
vt 0.782227 0.956177
vt 0.822754 0.767456
vt 0.822754 0.956177
vt 0.741211 0.996450
vt 0.700684 0.956177
vt 0.741211 0.956177
vt 0.741211 0.996450
vt 0.700684 0.956177
vt 0.700684 0.996450
vt 0.782227 0.537598
vt 0.782227 0.578613
vt 0.822754 0.537598
vt 0.782227 0.578613
vt 0.822754 0.578613
vt 0.822754 0.537598
vt 0.376953 0.628418
vt 0.278564 0.995567
vt 0.278564 0.628418
vt 0.870117 0.894287
vt 0.901367 0.996140
vt 0.870117 0.996140
vt 0.278564 0.995567
vt 0.376953 0.628418
vt 0.376953 0.995567
vt 0.901367 0.424316
vt 0.901367 0.526855
vt 0.870117 0.526855
vt 0.901367 0.424316
vt 0.870117 0.526855
vt 0.870117 0.424316
vt 0.901367 0.996140
vt 0.870117 0.894287
vt 0.901367 0.894287
vt 0.901367 0.424316
vt 0.870117 0.526855
vt 0.870117 0.424316
vt 0.870117 0.894287
vt 0.901367 0.996140
vt 0.870117 0.996140
vt 0.376953 0.628418
vt 0.278564 0.995567
vt 0.278564 0.628418
vt 0.278564 0.995567
vt 0.376953 0.628418
vt 0.376953 0.995567
vt 0.901367 0.424316
vt 0.901367 0.526855
vt 0.870117 0.526855
vt 0.741211 0.578613
vt 0.700684 0.767456
vt 0.700684 0.578613
vt 0.822754 0.578613
vt 0.822754 0.767456
vt 0.782227 0.578613
vt 0.741211 0.956177
vt 0.700684 0.767456
vt 0.741211 0.767456
vt 0.700684 0.767456
vt 0.741211 0.956177
vt 0.700684 0.956177
vt 0.822754 0.767456
vt 0.782227 0.956177
vt 0.782227 0.767456
vt 0.782227 0.956177
vt 0.822754 0.767456
vt 0.782227 0.767456
vt 0.822754 0.956177
vt 0.822754 0.767456
vt 0.782227 0.956177
vt 0.741211 0.578613
vt 0.700684 0.767456
vt 0.741211 0.767456
vt 0.700684 0.767456
vt 0.741211 0.578613
vt 0.700684 0.578613
vt 0.741211 0.578613
vt 0.782227 0.767456
vt 0.741211 0.767456
vt 0.782227 0.578613
vt 0.782227 0.767456
vt 0.741211 0.578613
vt 0.822754 0.767456
vt 0.863770 0.578613
vt 0.863770 0.767456
vt 0.863770 0.578613
vt 0.822754 0.767456
vt 0.822754 0.578613
vt 0.863770 0.956177
vt 0.822754 0.767456
vt 0.863770 0.767456
vt 0.822754 0.767456
vt 0.863770 0.956177
vt 0.822754 0.956177
vt 0.741211 0.956177
vt 0.782227 0.767456
vt 0.741211 0.767456
vt 0.782227 0.956177
vt 0.782227 0.767456
vt 0.741211 0.956177
vt 0.782227 0.767456
vt 0.741211 0.578613
vt 0.741211 0.767456
vt 0.741211 0.578613
vt 0.782227 0.767456
vt 0.782227 0.578613
vt 0.863770 0.578613
vt 0.822754 0.767456
vt 0.863770 0.767456
vt 0.822754 0.767456
vt 0.863770 0.578613
vt 0.822754 0.578613
vn 0.0000 -1.0000 0.0000
vn 0.0000 1.0000 0.0000
vn 0.0000 0.1211 -0.9926
vn -1.0000 0.0000 0.0000
vn 0.0000 -0.9999 -0.0150
vn 0.0000 0.9999 0.0139
vn 0.0000 0.1067 0.9943
vn 1.0000 0.0000 0.0000
vn -0.9991 -0.0412 0.0000
vn -1.0000 0.0022 0.0000
vn -0.9991 0.0412 0.0000
vn -1.0000 -0.0022 0.0000
vn 0.0000 0.0582 0.9983
vn 0.0000 0.0110 0.9999
vn 0.0000 -0.0582 0.9983
vn 0.0000 -0.0110 0.9999
vn 0.9991 -0.0412 0.0000
vn 0.9991 0.0412 0.0000
vn 0.0000 -0.0582 -0.9983
vn 0.0000 0.0582 -0.9983
vn 1.0000 0.0022 0.0000
vn 1.0000 -0.0022 0.0000
vn 0.0000 -0.0110 -0.9999
vn 0.0000 0.0110 -0.9999
usemtl Default_OBJ.005
s 1
f 1/1/1 2/2/1 3/3/1
f 4/4/1 5/5/1 6/6/1
f 7/7/2 8/8/2 9/9/2
f 10/10/2 11/11/2 12/12/2
f 13/13/3 14/14/3 15/15/3
f 16/16/3 17/17/3 18/18/3
f 19/19/4 20/20/4 21/21/4
f 22/22/4 23/23/4 24/24/4
f 25/25/5 26/26/5 27/27/5
f 28/28/5 29/29/5 30/30/5
f 31/31/6 32/32/6 33/33/6
f 34/34/6 35/35/6 36/36/6
f 37/37/7 38/38/7 39/39/7
f 40/40/7 41/41/7 42/42/7
f 43/43/8 44/44/8 45/45/8
f 46/46/8 47/47/8 48/48/8
f 49/49/9 50/50/9 51/51/9
f 52/52/9 53/53/9 54/54/9
f 55/55/10 56/56/10 57/57/10
f 58/58/10 59/59/10 60/60/10
f 61/61/11 62/62/11 63/63/11
f 64/64/11 65/65/11 66/66/11
f 67/67/12 68/68/12 69/69/12
f 70/70/12 71/71/12 72/72/12
f 73/73/13 74/74/13 75/75/13
f 76/76/13 77/77/13 78/78/13
f 79/79/14 80/80/14 81/81/14
f 82/82/14 83/83/14 84/84/14
f 85/85/15 86/86/15 87/87/15
f 88/88/15 89/89/15 90/90/15
f 91/91/16 92/92/16 93/93/16
f 94/94/16 95/95/16 96/96/16
f 97/97/1 98/98/1 99/99/1
f 100/100/1 101/101/1 102/102/1
f 103/103/7 104/104/7 105/105/7
f 106/106/3 107/107/3 108/108/3
f 109/109/3 110/110/3 111/111/3
f 112/112/5 113/113/5 114/114/5
f 115/115/17 116/116/17 117/117/17
f 118/118/9 119/119/9 120/120/9
f 121/121/1 122/122/1 123/123/1
f 124/124/1 125/125/1 126/126/1
f 127/127/1 128/128/1 129/129/1
f 130/130/1 131/131/1 132/132/1
f 133/133/5 134/134/5 135/135/5
f 136/136/5 137/137/5 138/138/5
f 139/139/7 140/140/7 141/141/7
f 142/142/5 143/143/5 144/144/5
f 145/145/5 146/146/5 147/147/5
f 148/148/3 149/149/3 150/150/3
f 151/151/7 152/152/7 153/153/7
f 154/154/7 155/155/7 156/156/7
f 157/157/3 158/158/3 159/159/3
f 160/160/7 161/161/7 162/162/7
f 163/163/7 164/164/7 165/165/7
f 166/166/5 167/167/5 168/168/5
f 169/169/3 170/170/3 171/171/3
f 172/172/3 173/173/3 174/174/3
f 175/175/17 176/176/17 177/177/17
f 178/178/11 179/179/11 180/180/11
f 181/181/11 182/182/11 183/183/11
f 184/184/9 185/185/9 186/186/9
f 187/187/18 188/188/18 189/189/18
f 190/190/18 191/191/18 192/192/18
f 193/193/18 194/194/18 195/195/18
f 196/196/18 197/197/18 198/198/18
f 199/199/17 200/200/17 201/201/17
f 202/202/17 203/203/17 204/204/17
f 205/205/13 206/206/13 207/207/13
f 208/208/13 209/209/13 210/210/13
f 211/211/19 212/212/19 213/213/19
f 214/214/19 215/215/19 216/216/19
f 217/217/19 218/218/19 219/219/19
f 220/220/19 221/221/19 222/222/19
f 223/223/20 224/224/20 225/225/20
f 226/226/20 227/227/20 228/228/20
f 229/229/20 230/230/20 231/231/20
f 232/232/20 233/233/20 234/234/20
f 235/235/15 236/236/15 237/237/15
f 238/238/15 239/239/15 240/240/15
f 241/241/2 242/242/2 243/243/2
f 244/244/2 245/245/2 246/246/2
f 247/247/6 248/248/6 249/249/6
f 250/250/8 251/251/8 252/252/8
f 253/253/6 254/254/6 255/255/6
f 256/256/8 257/257/8 258/258/8
f 259/259/4 260/260/4 261/261/4
f 262/262/8 263/263/8 264/264/8
f 265/265/4 266/266/4 267/267/4
f 268/268/21 269/269/21 270/270/21
f 271/271/12 272/272/12 273/273/12
f 274/274/22 275/275/22 276/276/22
f 277/277/2 278/278/2 279/279/2
f 280/280/2 281/281/2 282/282/2
f 283/283/2 284/284/2 285/285/2
f 286/286/2 287/287/2 288/288/2
f 289/289/6 290/290/6 291/291/6
f 292/292/8 293/293/8 294/294/8
f 295/295/6 296/296/6 297/297/6
f 298/298/4 299/299/4 300/300/4
f 301/301/4 302/302/4 303/303/4
f 304/304/8 305/305/8 306/306/8
f 307/307/4 308/308/4 309/309/4
f 310/310/8 311/311/8 312/312/8
f 313/313/6 314/314/6 315/315/6
f 316/316/6 317/317/6 318/318/6
f 319/319/4 320/320/4 321/321/4
f 322/322/21 323/323/21 324/324/21
f 325/325/12 326/326/12 327/327/12
f 328/328/10 329/329/10 330/330/10
f 331/331/10 332/332/10 333/333/10
f 334/334/22 335/335/22 336/336/22
f 337/337/22 338/338/22 339/339/22
f 340/340/22 341/341/22 342/342/22
f 343/343/21 344/344/21 345/345/21
f 346/346/21 347/347/21 348/348/21
f 349/349/14 350/350/14 351/351/14
f 352/352/14 353/353/14 354/354/14
f 355/355/23 356/356/23 357/357/23
f 358/358/23 359/359/23 360/360/23
f 361/361/23 362/362/23 363/363/23
f 364/364/23 365/365/23 366/366/23
f 367/367/24 368/368/24 369/369/24
f 370/370/24 371/371/24 372/372/24
f 373/373/24 374/374/24 375/375/24
f 376/376/24 377/377/24 378/378/24
f 379/379/16 380/380/16 381/381/16
f 382/382/16 383/383/16 384/384/16
