# Blender v2.81 (sub 16) OBJ File: ''
# www.blender.org
mtllib WeirdBox.mtl
o Cube
v 1.000000 1.000000 -1.000000
v 1.000000 -1.000000 -1.000000
v 1.000000 1.000000 1.000000
v 1.000000 -1.000000 1.000000
v -1.000000 1.000000 -1.000000
v -1.000000 -1.000000 -1.000000
v -1.000000 1.000000 1.000000
v -1.000000 -1.000000 1.000000
v -1.000000 -0.530792 0.484984
v -1.000000 -0.530792 -0.484984
v 1.000000 1.469208 -0.484984
v 1.000000 1.469208 0.484984
v -1.000000 1.469208 0.484984
v -1.000000 1.469208 -0.484984
v 1.000000 -0.530792 0.484984
v 1.000000 -0.530792 -0.484984
vt 0.625000 0.750000
vt 0.375000 1.000000
vt 0.375000 0.750000
vt 0.375000 0.685623
vt 0.375000 0.185623
vt 0.625000 0.250000
vt 0.375000 0.250000
vt 0.875000 0.500000
vt 0.625000 0.564377
vt 0.625000 0.500000
vt 0.375000 0.500000
vt 0.875000 0.685623
vt 0.625000 0.685623
vt 0.125000 0.750000
vt 0.125000 0.685623
vt 0.125000 0.564377
vt 0.125000 0.500000
vt 0.375000 0.564377
vt 0.625000 0.064377
vt 0.625000 0.185623
vt 0.875000 0.564377
vt 0.625000 0.000000
vt 0.375000 0.064377
vt 0.375000 0.000000
vt 0.625000 1.000000
vt 0.875000 0.750000
vn 0.0000 0.0000 1.0000
vn 1.0000 0.0000 0.0000
vn -1.0000 0.0000 0.0000
vn 0.0000 0.7392 -0.6735
vn 0.0000 0.0000 -1.0000
vn 0.0000 0.7392 0.6735
vn 0.0000 -0.7392 -0.6735
vn 0.0000 -0.7392 0.6735
vn 0.0000 -1.0000 0.0000
vn 0.0000 1.0000 0.0000
usemtl Material
s off
f 3/1/1 8/2/1 4/3/1
f 15/4/2 3/1/2 4/3/2
f 10/5/3 5/6/3 6/7/3
f 5/8/4 11/9/4 1/10/4
f 5/6/5 2/11/5 6/7/5
f 13/12/6 3/1/6 12/13/6
f 15/4/7 8/14/7 9/15/7
f 2/11/8 10/16/8 6/17/8
f 1/10/2 16/18/2 2/11/2
f 15/4/2 11/9/2 12/13/2
f 9/15/9 16/18/9 15/4/9
f 10/5/3 13/19/3 14/20/3
f 12/13/10 14/21/10 13/12/10
f 7/22/3 9/23/3 8/24/3
f 3/1/1 7/25/1 8/2/1
f 15/4/2 12/13/2 3/1/2
f 10/5/3 14/20/3 5/6/3
f 5/8/4 14/21/4 11/9/4
f 5/6/5 1/10/5 2/11/5
f 13/12/6 7/26/6 3/1/6
f 15/4/7 4/3/7 8/14/7
f 2/11/8 16/18/8 10/16/8
f 1/10/2 11/9/2 16/18/2
f 15/4/2 16/18/2 11/9/2
f 9/15/9 10/16/9 16/18/9
f 10/5/3 9/23/3 13/19/3
f 12/13/10 11/9/10 14/21/10
f 7/22/3 13/19/3 9/23/3
