# Blender v2.82 (sub 7) OBJ File: 'WabbleFiles.blend'
# www.blender.org
o Wabble_Chair_Collision_Cube.004
v -0.222588 -0.374472 0.238839
v -0.222588 -0.374472 -0.186071
v -0.222588 0.446041 -0.238839
v 0.222588 -0.374472 0.238839
v 0.222588 -0.374472 -0.186071
v 0.222588 0.446041 -0.238839
v -0.222588 -0.374472 0.000000
v -0.222588 0.446041 -0.152801
v 0.222588 -0.374472 0.000000
v 0.222588 0.446041 -0.149844
v -0.222588 0.028624 0.226997
v -0.222588 0.000000 -0.196769
v 0.222588 0.000000 -0.196769
v 0.222588 0.028624 0.226997
v 0.222588 0.028624 -0.097397
v -0.222588 0.028624 -0.097397
vt 0.625000 0.125000
vt 0.500000 0.250000
vt 0.500000 0.125000
vt 0.625000 0.250000
vt 0.500000 0.500000
vt 0.375000 0.625000
vt 0.125000 0.750000
vt 0.125000 0.625000
vt 0.625000 0.500000
vt 0.875000 0.625000
vt 0.625000 0.625000
vt 0.375000 0.500000
vt 0.125000 0.500000
vt 0.500000 0.625000
vt 0.500000 0.000000
vt 0.375000 0.125000
vt 0.375000 0.000000
vt 0.500000 0.750000
vt 0.375000 1.000000
vt 0.375000 0.750000
vt 0.375000 0.250000
vt 0.500000 1.000000
vt 0.875000 0.500000
vn -1.0000 0.0000 0.0000
vn 0.0000 -0.0939 -0.9956
vn 0.0000 -1.0000 0.0000
vn 0.0000 1.0000 0.0000
vn 1.0000 0.0000 0.0000
vn 0.0000 0.0294 0.9996
vn 0.0000 -0.0286 -0.9996
vn -0.0066 0.1316 0.9913
vn 0.0000 0.1247 0.9922
s off
f 8/1/1 12/2/1 16/3/1
f 3/4/2 13/5/2 12/2/2
f 9/6/3 1/7/3 7/8/3
f 6/9/4 8/10/4 10/11/4
f 5/12/3 7/8/3 2/13/3
f 13/5/5 10/11/5 15/14/5
f 11/15/1 7/16/1 1/17/1
f 5/12/5 15/14/5 9/6/5
f 14/18/6 1/19/6 4/20/6
f 9/6/5 14/18/5 4/20/5
f 12/2/7 5/12/7 2/21/7
f 16/3/1 2/21/1 7/16/1
f 16/3/8 10/11/8 8/1/8
f 14/18/4 16/3/4 11/22/4
f 8/1/1 3/4/1 12/2/1
f 3/4/2 6/9/2 13/5/2
f 9/6/3 4/20/3 1/7/3
f 6/9/4 3/23/4 8/10/4
f 5/12/3 9/6/3 7/8/3
f 13/5/5 6/9/5 10/11/5
f 11/15/1 16/3/1 7/16/1
f 5/12/5 13/5/5 15/14/5
f 14/18/6 11/22/6 1/19/6
f 9/6/5 15/14/5 14/18/5
f 12/2/7 13/5/7 5/12/7
f 16/3/1 12/2/1 2/21/1
f 16/3/9 15/14/9 10/11/9
f 14/18/4 15/14/4 16/3/4
