# Blender v2.82 (sub 7) OBJ File: 'WabbleFiles.blend'
# www.blender.org
o Wabble_Blunderbuss_Collision_Cylinder.001
v -0.474388 -0.037128 -0.146069
v 0.743397 0.090622 -0.077926
v -0.474388 -0.065625 -0.143262
v 0.743397 0.075419 -0.076429
v -0.474388 -0.093026 -0.134950
v 0.743397 0.060801 -0.071994
v -0.474388 -0.118280 -0.121452
v 0.743397 0.047328 -0.064793
v -0.474388 -0.140415 -0.103286
v 0.743397 0.035520 -0.055102
v -0.474388 -0.158580 -0.081151
v 0.743397 0.025828 -0.043293
v -0.474388 -0.172078 -0.055898
v 0.743397 0.018627 -0.029821
v -0.474388 -0.180390 -0.028497
v 0.743397 0.014193 -0.015203
v -0.474388 -0.183197 0.000000
v 0.743397 0.012696 -0.000000
v -0.474388 -0.180390 0.028497
v 0.743397 0.014193 0.015203
v -0.474388 -0.172078 0.055898
v 0.743397 0.018627 0.029821
v -0.474388 -0.158580 0.081151
v 0.743397 0.025828 0.043293
v -0.474388 -0.140415 0.103286
v 0.743397 0.035520 0.055102
v -0.474388 -0.118280 0.121452
v 0.743397 0.047328 0.064793
v -0.474388 -0.093026 0.134950
v 0.743397 0.060801 0.071994
v -0.474388 -0.065625 0.143262
v 0.743397 0.075419 0.076429
v -0.474388 -0.037128 0.146069
v 0.743397 0.090622 0.077926
v -0.474388 -0.008632 0.143262
v 0.743397 0.105824 0.076429
v -0.474388 0.018770 0.134950
v 0.743397 0.120443 0.071994
v -0.474388 0.044023 0.121452
v 0.743397 0.133915 0.064793
v -0.474388 0.066158 0.103286
v 0.743397 0.145724 0.055102
v -0.474388 0.084323 0.081151
v 0.743397 0.155415 0.043293
v -0.474388 0.097822 0.055898
v 0.743397 0.162616 0.029821
v -0.474388 0.106134 0.028496
v 0.743397 0.167050 0.015203
v -0.474388 0.108940 -0.000000
v 0.743397 0.168548 -0.000000
v -0.474388 0.106134 -0.028497
v 0.743397 0.167050 -0.015203
v -0.474388 0.097821 -0.055898
v 0.743397 0.162616 -0.029821
v -0.474388 0.084323 -0.081152
v 0.743397 0.155415 -0.043293
v -0.474388 0.066158 -0.103286
v 0.743397 0.145723 -0.055102
v -0.474388 0.044023 -0.121452
v 0.743397 0.133915 -0.064793
v -0.474388 0.018769 -0.134950
v 0.743397 0.120442 -0.071994
v -0.474388 -0.008632 -0.143262
v 0.743397 0.105824 -0.076429
v -0.082116 0.090622 -0.077926
v -0.082116 0.075419 -0.076429
v -0.082116 0.060801 -0.071994
v -0.082116 0.047328 -0.064793
v -0.082116 0.035520 -0.055102
v -0.082116 0.025829 -0.043293
v -0.082116 0.018627 -0.029821
v -0.082116 0.014193 -0.015203
v -0.082116 0.012696 -0.000000
v -0.082116 0.014193 0.015203
v -0.082116 0.018627 0.029821
v -0.082116 0.025829 0.043293
v -0.082116 0.035520 0.055102
v -0.082116 0.047328 0.064793
v -0.082116 0.060801 0.071994
v -0.082116 0.075419 0.076429
v -0.082116 0.090622 0.077926
v -0.082116 0.105824 0.076429
v -0.082116 0.120443 0.071994
v -0.082116 0.133915 0.064793
v -0.082116 0.145724 0.055102
v -0.082116 0.155415 0.043293
v -0.082116 0.162616 0.029821
v -0.082116 0.167050 0.015203
v -0.082116 0.168548 -0.000000
v -0.082116 0.167050 -0.015203
v -0.082116 0.162616 -0.029821
v -0.082116 0.155415 -0.043293
v -0.082116 0.145724 -0.055102
v -0.082116 0.133915 -0.064793
v -0.082116 0.120442 -0.071994
v -0.082116 0.105824 -0.076429
vt 1.000000 1.000000
vt 0.968750 0.539099
vt 1.000000 0.539099
vt 0.968750 1.000000
vt 0.937500 0.539099
vt 0.937500 1.000000
vt 0.906250 0.539099
vt 0.906250 1.000000
vt 0.875000 0.539099
vt 0.875000 1.000000
vt 0.843750 0.539099
vt 0.843750 1.000000
vt 0.812500 0.539099
vt 0.812500 1.000000
vt 0.781250 0.539099
vt 0.781250 1.000000
vt 0.750000 0.539099
vt 0.750000 1.000000
vt 0.718750 0.539099
vt 0.718750 1.000000
vt 0.687500 0.539099
vt 0.687500 1.000000
vt 0.656250 0.539099
vt 0.656250 1.000000
vt 0.625000 0.539099
vt 0.625000 1.000000
vt 0.593750 0.539099
vt 0.593750 1.000000
vt 0.562500 0.539099
vt 0.562500 1.000000
vt 0.531250 0.539099
vt 0.531250 1.000000
vt 0.500000 0.539099
vt 0.500000 1.000000
vt 0.468750 0.539099
vt 0.468750 1.000000
vt 0.437500 0.539099
vt 0.437500 1.000000
vt 0.406250 0.539099
vt 0.406250 1.000000
vt 0.375000 0.539099
vt 0.375000 1.000000
vt 0.343750 0.539099
vt 0.343750 1.000000
vt 0.312500 0.539099
vt 0.312500 1.000000
vt 0.281250 0.539099
vt 0.281250 1.000000
vt 0.250000 0.539099
vt 0.250000 1.000000
vt 0.218750 0.539099
vt 0.218750 1.000000
vt 0.187500 0.539099
vt 0.187500 1.000000
vt 0.156250 0.539099
vt 0.156250 1.000000
vt 0.125000 0.539099
vt 0.125000 1.000000
vt 0.093750 0.539099
vt 0.093750 1.000000
vt 0.062500 0.539099
vt 0.028269 0.341844
vt 0.158156 0.028269
vt 0.471731 0.158156
vt 0.062500 1.000000
vt 0.031250 0.539099
vt 0.031250 1.000000
vt 0.000000 0.539099
vt 0.796822 0.014612
vt 0.514611 0.203179
vt 0.703179 0.485389
vt 0.031250 0.500000
vt 0.000000 0.500000
vt 0.062500 0.500000
vt 0.093750 0.500000
vt 0.125000 0.500000
vt 0.156250 0.500000
vt 0.187500 0.500000
vt 0.218750 0.500000
vt 0.250000 0.500000
vt 0.281250 0.500000
vt 0.312500 0.500000
vt 0.343750 0.500000
vt 0.375000 0.500000
vt 0.406250 0.500000
vt 0.437500 0.500000
vt 0.468750 0.500000
vt 0.500000 0.500000
vt 0.531250 0.500000
vt 0.562500 0.500000
vt 0.593750 0.500000
vt 0.625000 0.500000
vt 0.656250 0.500000
vt 0.687500 0.500000
vt 0.718750 0.500000
vt 0.750000 0.500000
vt 0.781250 0.500000
vt 0.812500 0.500000
vt 0.843750 0.500000
vt 0.875000 0.500000
vt 0.906250 0.500000
vt 0.937500 0.500000
vt 0.968750 0.500000
vt 1.000000 0.500000
vt 0.341844 0.471731
vt 0.296822 0.485388
vt 0.250000 0.490000
vt 0.203179 0.485389
vt 0.158156 0.471731
vt 0.116663 0.449553
vt 0.080295 0.419706
vt 0.050447 0.383337
vt 0.014612 0.296822
vt 0.010000 0.250000
vt 0.014611 0.203179
vt 0.028269 0.158156
vt 0.050447 0.116663
vt 0.080294 0.080294
vt 0.116663 0.050447
vt 0.203178 0.014612
vt 0.250000 0.010000
vt 0.296822 0.014612
vt 0.341844 0.028269
vt 0.383337 0.050447
vt 0.419706 0.080294
vt 0.449553 0.116663
vt 0.485388 0.203178
vt 0.490000 0.250000
vt 0.485388 0.296822
vt 0.471731 0.341844
vt 0.449553 0.383337
vt 0.419706 0.419706
vt 0.383337 0.449553
vt 0.000000 1.000000
vt 0.750000 0.490000
vt 0.796822 0.485388
vt 0.841844 0.471731
vt 0.883337 0.449553
vt 0.919706 0.419706
vt 0.985388 0.296822
vt 0.949553 0.383337
vt 0.971731 0.341844
vt 0.990000 0.250000
vt 0.985388 0.203178
vt 0.971731 0.158156
vt 0.949553 0.116663
vt 0.919706 0.080294
vt 0.883337 0.050447
vt 0.841844 0.028269
vt 0.750000 0.010000
vt 0.616663 0.050447
vt 0.703178 0.014612
vt 0.658156 0.028269
vt 0.580294 0.080294
vt 0.550447 0.116663
vt 0.528269 0.158156
vt 0.510000 0.250000
vt 0.550447 0.383337
vt 0.514612 0.296822
vt 0.528269 0.341844
vt 0.580295 0.419706
vt 0.616663 0.449553
vt 0.658156 0.471731
vn 0.0000 -0.0980 -0.9952
vn -0.0000 -0.2903 -0.9569
vn -0.0000 -0.4714 -0.8819
vn -0.0000 -0.6344 -0.7730
vn -0.0000 -0.7730 -0.6344
vn -0.0000 -0.8819 -0.4714
vn -0.0000 -0.9569 -0.2903
vn -0.0000 -0.9952 -0.0980
vn -0.0000 -0.9952 0.0980
vn -0.0000 -0.9569 0.2903
vn -0.0000 -0.8819 0.4714
vn -0.0000 -0.7730 0.6344
vn -0.0000 -0.6344 0.7730
vn -0.0000 -0.4714 0.8819
vn -0.0000 -0.2903 0.9569
vn -0.0000 -0.0980 0.9952
vn 0.0000 0.0980 0.9952
vn 0.0000 0.2903 0.9569
vn 0.0000 0.4714 0.8819
vn 0.0000 0.6344 0.7730
vn 0.0000 0.7730 0.6344
vn 0.0000 0.8819 0.4714
vn 0.0000 0.9569 0.2903
vn 0.0000 0.9952 0.0980
vn 0.0000 0.9952 -0.0980
vn 0.0000 0.9569 -0.2903
vn 0.0000 0.8819 -0.4714
vn 0.0000 0.7730 -0.6344
vn 0.0000 0.6344 -0.7730
vn 0.0000 0.4714 -0.8819
vn 1.0000 0.0000 0.0000
vn 0.0000 0.2903 -0.9569
vn 0.0000 0.0980 -0.9952
vn -1.0000 -0.0000 0.0000
vn 0.1396 0.0971 -0.9854
vn 0.0781 0.2894 -0.9540
vn 0.0194 0.4713 -0.8818
vn -0.0337 0.6340 -0.7726
vn -0.0786 0.7706 -0.6324
vn -0.1136 0.8762 -0.4683
vn -0.1375 0.9479 -0.2875
vn -0.1495 0.9840 -0.0969
vn -0.1495 0.9840 0.0969
vn -0.1375 0.9479 0.2875
vn -0.1136 0.8762 0.4683
vn -0.0786 0.7706 0.6324
vn -0.0337 0.6340 0.7726
vn 0.0194 0.4713 0.8818
vn 0.0781 0.2894 0.9540
vn 0.1396 0.0971 0.9854
vn 0.2006 -0.0960 0.9749
vn 0.2583 -0.2804 0.9245
vn 0.3103 -0.4481 0.8384
vn 0.3548 -0.5931 0.7227
vn 0.3908 -0.7115 0.5839
vn 0.4180 -0.8012 0.4282
vn 0.4360 -0.8612 0.2612
vn 0.4450 -0.8912 0.0878
vn 0.4450 -0.8912 -0.0878
vn 0.4360 -0.8612 -0.2612
vn 0.4180 -0.8012 -0.4282
vn 0.3908 -0.7115 -0.5839
vn 0.3548 -0.5931 -0.7227
vn 0.3103 -0.4481 -0.8384
vn 0.2583 -0.2804 -0.9245
vn 0.2006 -0.0960 -0.9749
vn 1.0000 0.0001 0.0000
vn 1.0000 -0.0001 0.0000
s off
f 2/1/1 66/2/1 65/3/1
f 4/4/2 67/5/2 66/2/2
f 6/6/3 68/7/3 67/5/3
f 8/8/4 69/9/4 68/7/4
f 10/10/5 70/11/5 69/9/5
f 12/12/6 71/13/6 70/11/6
f 14/14/7 72/15/7 71/13/7
f 16/16/8 73/17/8 72/15/8
f 18/18/9 74/19/9 73/17/9
f 20/20/10 75/21/10 74/19/10
f 22/22/11 76/23/11 75/21/11
f 24/24/12 77/25/12 76/23/12
f 26/26/13 78/27/13 77/25/13
f 28/28/14 79/29/14 78/27/14
f 30/30/15 80/31/15 79/29/15
f 32/32/16 81/33/16 80/31/16
f 34/34/17 82/35/17 81/33/17
f 36/36/18 83/37/18 82/35/18
f 38/38/19 84/39/19 83/37/19
f 40/40/20 85/41/20 84/39/20
f 42/42/21 86/43/21 85/41/21
f 44/44/22 87/45/22 86/43/22
f 46/46/23 88/47/23 87/45/23
f 48/48/24 89/49/24 88/47/24
f 50/50/25 90/51/25 89/49/25
f 52/52/26 91/53/26 90/51/26
f 54/54/27 92/55/27 91/53/27
f 56/56/28 93/57/28 92/55/28
f 58/58/29 94/59/29 93/57/29
f 60/60/30 95/61/30 94/59/30
f 54/62/31 38/63/31 22/64/31
f 62/65/32 96/66/32 95/61/32
f 64/67/33 65/68/33 96/66/33
f 31/69/34 47/70/34 63/71/34
f 63/72/35 65/68/35 1/73/35
f 61/74/36 96/66/36 63/72/36
f 59/75/37 95/61/37 61/74/37
f 57/76/38 94/59/38 59/75/38
f 55/77/39 93/57/39 57/76/39
f 53/78/40 92/55/40 55/77/40
f 51/79/41 91/53/41 53/78/41
f 49/80/42 90/51/42 51/79/42
f 88/47/43 49/80/43 47/81/43
f 87/45/44 47/81/44 45/82/44
f 86/43/45 45/82/45 43/83/45
f 85/41/46 43/83/46 41/84/46
f 84/39/47 41/84/47 39/85/47
f 83/37/48 39/85/48 37/86/48
f 82/35/49 37/86/49 35/87/49
f 81/33/50 35/87/50 33/88/50
f 80/31/51 33/88/51 31/89/51
f 79/29/52 31/89/52 29/90/52
f 78/27/53 29/90/53 27/91/53
f 77/25/54 27/91/54 25/92/54
f 76/23/55 25/92/55 23/93/55
f 75/21/56 23/93/56 21/94/56
f 74/19/57 21/94/57 19/95/57
f 73/17/58 19/95/58 17/96/58
f 15/97/59 73/17/59 17/96/59
f 13/98/60 72/15/60 15/97/60
f 11/99/61 71/13/61 13/98/61
f 9/100/62 70/11/62 11/99/62
f 7/101/63 69/9/63 9/100/63
f 5/102/64 68/7/64 7/101/64
f 3/103/65 67/5/65 5/102/65
f 1/104/66 66/2/66 3/103/66
f 2/1/1 4/4/1 66/2/1
f 4/4/2 6/6/2 67/5/2
f 6/6/3 8/8/3 68/7/3
f 8/8/4 10/10/4 69/9/4
f 10/10/5 12/12/5 70/11/5
f 12/12/6 14/14/6 71/13/6
f 14/14/7 16/16/7 72/15/7
f 16/16/8 18/18/8 73/17/8
f 18/18/9 20/20/9 74/19/9
f 20/20/10 22/22/10 75/21/10
f 22/22/11 24/24/11 76/23/11
f 24/24/12 26/26/12 77/25/12
f 26/26/13 28/28/13 78/27/13
f 28/28/14 30/30/14 79/29/14
f 30/30/15 32/32/15 80/31/15
f 32/32/16 34/34/16 81/33/16
f 34/34/17 36/36/17 82/35/17
f 36/36/18 38/38/18 83/37/18
f 38/38/19 40/40/19 84/39/19
f 40/40/20 42/42/20 85/41/20
f 42/42/21 44/44/21 86/43/21
f 44/44/22 46/46/22 87/45/22
f 46/46/23 48/48/23 88/47/23
f 48/48/24 50/50/24 89/49/24
f 50/50/25 52/52/25 90/51/25
f 52/52/26 54/54/26 91/53/26
f 54/54/27 56/56/27 92/55/27
f 56/56/28 58/58/28 93/57/28
f 58/58/29 60/60/29 94/59/29
f 60/60/30 62/65/30 95/61/30
f 6/105/31 4/106/31 2/107/31
f 2/107/31 64/108/31 6/105/31
f 64/108/31 62/109/31 6/105/31
f 62/109/31 60/110/31 58/111/31
f 58/111/31 56/112/31 54/62/31
f 54/62/67 52/113/67 50/114/67
f 50/114/68 48/115/68 54/62/68
f 48/115/31 46/116/31 54/62/31
f 46/116/31 44/117/31 38/63/31
f 44/117/31 42/118/31 38/63/31
f 42/118/31 40/119/31 38/63/31
f 38/63/31 36/120/31 34/121/31
f 34/121/31 32/122/31 30/123/31
f 30/123/31 28/124/31 26/125/31
f 26/125/31 24/126/31 22/64/31
f 22/64/31 20/127/31 18/128/31
f 18/128/31 16/129/31 22/64/31
f 16/129/31 14/130/31 22/64/31
f 14/130/31 12/131/31 10/132/31
f 10/132/31 8/133/31 6/105/31
f 62/109/31 58/111/31 6/105/31
f 58/111/31 54/62/31 6/105/31
f 38/63/31 34/121/31 22/64/31
f 34/121/31 30/123/31 22/64/31
f 30/123/31 26/125/31 22/64/31
f 14/130/31 10/132/31 22/64/31
f 10/132/31 6/105/31 22/64/31
f 54/62/31 46/116/31 38/63/31
f 6/105/31 54/62/31 22/64/31
f 62/65/32 64/67/32 96/66/32
f 64/67/33 2/134/33 65/68/33
f 63/71/34 1/135/34 3/136/34
f 3/136/34 5/137/34 63/71/34
f 5/137/34 7/138/34 63/71/34
f 7/138/34 9/139/34 15/140/34
f 9/139/34 11/141/34 15/140/34
f 11/141/34 13/142/34 15/140/34
f 15/140/34 17/143/34 19/144/34
f 19/144/34 21/145/34 23/146/34
f 23/146/34 25/147/34 31/69/34
f 25/147/34 27/148/34 31/69/34
f 27/148/34 29/149/34 31/69/34
f 31/69/34 33/150/34 39/151/34
f 33/150/34 35/152/34 39/151/34
f 35/152/34 37/153/34 39/151/34
f 39/151/34 41/154/34 43/155/34
f 43/155/34 45/156/34 39/151/34
f 45/156/34 47/70/34 39/151/34
f 47/70/34 49/157/34 55/158/34
f 49/157/34 51/159/34 55/158/34
f 51/159/34 53/160/34 55/158/34
f 55/158/34 57/161/34 59/162/34
f 59/162/34 61/163/34 63/71/34
f 15/140/34 19/144/34 31/69/34
f 19/144/34 23/146/34 31/69/34
f 55/158/34 59/162/34 47/70/34
f 59/162/34 63/71/34 47/70/34
f 63/71/34 7/138/34 15/140/34
f 31/69/34 39/151/34 47/70/34
f 63/71/34 15/140/34 31/69/34
f 63/72/35 96/66/35 65/68/35
f 61/74/36 95/61/36 96/66/36
f 59/75/37 94/59/37 95/61/37
f 57/76/38 93/57/38 94/59/38
f 55/77/39 92/55/39 93/57/39
f 53/78/40 91/53/40 92/55/40
f 51/79/41 90/51/41 91/53/41
f 49/80/42 89/49/42 90/51/42
f 88/47/43 89/49/43 49/80/43
f 87/45/44 88/47/44 47/81/44
f 86/43/45 87/45/45 45/82/45
f 85/41/46 86/43/46 43/83/46
f 84/39/47 85/41/47 41/84/47
f 83/37/48 84/39/48 39/85/48
f 82/35/49 83/37/49 37/86/49
f 81/33/50 82/35/50 35/87/50
f 80/31/51 81/33/51 33/88/51
f 79/29/52 80/31/52 31/89/52
f 78/27/53 79/29/53 29/90/53
f 77/25/54 78/27/54 27/91/54
f 76/23/55 77/25/55 25/92/55
f 75/21/56 76/23/56 23/93/56
f 74/19/57 75/21/57 21/94/57
f 73/17/58 74/19/58 19/95/58
f 15/97/59 72/15/59 73/17/59
f 13/98/60 71/13/60 72/15/60
f 11/99/61 70/11/61 71/13/61
f 9/100/62 69/9/62 70/11/62
f 7/101/63 68/7/63 69/9/63
f 5/102/64 67/5/64 68/7/64
f 3/103/65 66/2/65 67/5/65
f 1/104/66 65/3/66 66/2/66
