# Blender v2.82 (sub 7) OBJ File: 'WabbleFiles.blend'
# www.blender.org
o Collision_Wabble_Shotgun_Cylinder
v 0.385616 0.078115 -0.045043
v -0.144615 -0.020692 -0.029665
v 0.385616 0.082722 -0.044178
v -0.147669 -0.015844 -0.029101
v 0.385616 0.087153 -0.041615
v -0.150605 -0.011182 -0.027430
v 0.385616 0.091236 -0.037452
v -0.153311 -0.006886 -0.024716
v 0.385616 0.094815 -0.031850
v -0.155683 -0.003121 -0.021064
v 0.385616 0.097752 -0.025025
v -0.157630 -0.000031 -0.016613
v 0.385616 0.099935 -0.017237
v -0.159076 0.002266 -0.011536
v 0.385616 0.101279 -0.008788
v -0.159967 0.003680 -0.006027
v 0.385616 0.101733 -0.000000
v -0.160267 0.004157 -0.000298
v 0.385616 0.101279 0.008788
v -0.159967 0.003680 0.005432
v 0.385616 0.099935 0.017237
v -0.159076 0.002266 0.010941
v 0.385616 0.097752 0.025025
v -0.157630 -0.000031 0.016018
v 0.385616 0.094815 0.031850
v -0.155683 -0.003121 0.020468
v 0.385616 0.091236 0.037452
v -0.153311 -0.006886 0.024120
v 0.385616 0.087153 0.041615
v -0.150605 -0.011182 0.026834
v 0.385616 0.082722 0.044178
v -0.147669 -0.015844 0.028505
v 0.385616 0.078115 0.045043
v -0.144615 -0.020692 0.029070
v 0.385616 0.073507 0.044178
v -0.141562 -0.025539 0.028505
v 0.385616 0.069076 0.041615
v -0.138626 -0.030201 0.026834
v 0.385616 0.064993 0.037452
v -0.135920 -0.034497 0.024120
v 0.385616 0.061414 0.031850
v -0.133548 -0.038262 0.020468
v 0.385616 0.058477 0.025025
v -0.131601 -0.041353 0.016018
v 0.385616 0.056294 0.017237
v -0.130155 -0.043649 0.010941
v 0.385616 0.054950 0.008787
v -0.129264 -0.045063 0.005432
v 0.385616 0.054496 -0.000000
v -0.128963 -0.045540 -0.000298
v 0.385616 0.054950 -0.008788
v -0.129264 -0.045063 -0.006027
v 0.385616 0.056294 -0.017237
v -0.130155 -0.043649 -0.011536
v 0.385616 0.058477 -0.025025
v -0.131601 -0.041353 -0.016613
v 0.385616 0.061414 -0.031851
v -0.133548 -0.038262 -0.021064
v 0.385616 0.064993 -0.037452
v -0.135920 -0.034497 -0.024716
v 0.385616 0.069076 -0.041615
v -0.138626 -0.030201 -0.027430
v 0.385616 0.073507 -0.044178
v -0.141562 -0.025539 -0.029101
v -0.025452 0.051716 -0.048327
v -0.025452 0.062123 -0.047302
v -0.025452 0.072129 -0.044266
v -0.025452 0.081352 -0.039337
v -0.025452 0.089435 -0.032703
v -0.025452 0.096069 -0.024620
v -0.025452 0.100998 -0.015398
v -0.025452 0.104034 -0.005391
v -0.025452 0.105058 0.005015
v -0.025452 0.104034 0.015422
v -0.025452 0.100998 0.025429
v -0.025452 0.096069 0.034651
v -0.025452 0.089435 0.042734
v -0.025452 0.081352 0.049368
v -0.025452 0.072129 0.054297
v -0.025452 0.062123 0.057333
v -0.025452 0.051716 0.058358
v -0.025452 0.041310 0.057333
v -0.025452 0.031303 0.054297
v -0.025452 0.022081 0.049368
v -0.025452 0.013998 0.042734
v -0.025452 0.007364 0.034651
v -0.025452 0.002435 0.025429
v -0.025452 -0.000601 0.015422
v -0.025452 -0.001626 0.005015
v -0.025452 -0.000601 -0.005391
v -0.025452 0.002435 -0.015398
v -0.025452 0.007364 -0.024620
v -0.025452 0.013998 -0.032703
v -0.025452 0.022081 -0.039337
v -0.025452 0.031303 -0.044266
v -0.025452 0.041310 -0.047302
vt 1.000000 0.750000
vt 0.968750 1.000000
vt 0.968750 0.750000
vt 0.937500 1.000000
vt 0.937500 0.750000
vt 0.906250 1.000000
vt 0.906250 0.750000
vt 0.875000 1.000000
vt 0.875000 0.750000
vt 0.843750 1.000000
vt 0.843750 0.750000
vt 0.812500 1.000000
vt 0.812500 0.750000
vt 0.781250 1.000000
vt 0.781250 0.750000
vt 0.750000 1.000000
vt 0.750000 0.750000
vt 0.718750 0.750000
vt 0.718750 1.000000
vt 0.687500 0.750000
vt 0.687500 1.000000
vt 0.656250 0.750000
vt 0.656250 1.000000
vt 0.625000 0.750000
vt 0.625000 1.000000
vt 0.593750 0.750000
vt 0.593750 1.000000
vt 0.562500 0.750000
vt 0.562500 1.000000
vt 0.531250 0.750000
vt 0.531250 1.000000
vt 0.500000 0.750000
vt 0.500000 1.000000
vt 0.468750 0.750000
vt 0.468750 1.000000
vt 0.437500 0.750000
vt 0.437500 1.000000
vt 0.406250 0.750000
vt 0.406250 1.000000
vt 0.375000 0.750000
vt 0.375000 1.000000
vt 0.343750 0.750000
vt 0.343750 1.000000
vt 0.312500 0.750000
vt 0.312500 1.000000
vt 0.281250 0.750000
vt 0.281250 1.000000
vt 0.250000 0.750000
vt 0.218750 1.000000
vt 0.218750 0.750000
vt 0.187500 1.000000
vt 0.187500 0.750000
vt 0.156250 1.000000
vt 0.156250 0.750000
vt 0.125000 1.000000
vt 0.125000 0.750000
vt 0.093750 1.000000
vt 0.093750 0.750000
vt 0.062500 1.000000
vt 0.062500 0.750000
vt 0.419706 0.419706
vt 0.383337 0.449553
vt 0.080295 0.419706
vt 0.031250 1.000000
vt 0.031250 0.750000
vt 0.000000 1.000000
vt 0.000000 0.750000
vt 0.616663 0.449553
vt 0.658156 0.471731
vt 0.883337 0.449553
vt 0.031250 0.500000
vt 0.000000 0.500000
vt 0.062500 0.500000
vt 0.093750 0.500000
vt 0.125000 0.500000
vt 0.156250 0.500000
vt 0.187500 0.500000
vt 0.218750 0.500000
vt 0.250000 0.500000
vt 0.281250 0.500000
vt 0.312500 0.500000
vt 0.343750 0.500000
vt 0.375000 0.500000
vt 0.406250 0.500000
vt 0.437500 0.500000
vt 0.468750 0.500000
vt 0.500000 0.500000
vt 0.531250 0.500000
vt 0.562500 0.500000
vt 0.593750 0.500000
vt 0.625000 0.500000
vt 0.656250 0.500000
vt 0.687500 0.500000
vt 0.718750 0.500000
vt 0.750000 0.500000
vt 0.781250 0.500000
vt 0.812500 0.500000
vt 0.843750 0.500000
vt 0.875000 0.500000
vt 0.906250 0.500000
vt 0.937500 0.500000
vt 0.968750 0.500000
vt 1.000000 0.500000
vt 1.000000 1.000000
vt 0.250000 1.000000
vt 0.341844 0.471731
vt 0.296822 0.485388
vt 0.158156 0.471731
vt 0.250000 0.490000
vt 0.203179 0.485389
vt 0.116663 0.449553
vt 0.050447 0.383337
vt 0.028269 0.341844
vt 0.449553 0.383337
vt 0.014612 0.296822
vt 0.485388 0.296822
vt 0.010000 0.250000
vt 0.490000 0.250000
vt 0.014611 0.203179
vt 0.485388 0.203178
vt 0.028269 0.158156
vt 0.471731 0.158156
vt 0.050447 0.116663
vt 0.080294 0.080294
vt 0.449553 0.116663
vt 0.116663 0.050447
vt 0.419706 0.080294
vt 0.158156 0.028269
vt 0.383337 0.050447
vt 0.203178 0.014612
vt 0.341844 0.028269
vt 0.250000 0.010000
vt 0.296822 0.014612
vt 0.471731 0.341844
vt 0.703179 0.485389
vt 0.750000 0.490000
vt 0.796822 0.485388
vt 0.841844 0.471731
vt 0.919706 0.419706
vt 0.580295 0.419706
vt 0.949553 0.383337
vt 0.550447 0.383337
vt 0.971731 0.341844
vt 0.985388 0.296822
vt 0.528269 0.341844
vt 0.990000 0.250000
vt 0.510000 0.250000
vt 0.985388 0.203178
vt 0.514611 0.203179
vt 0.971731 0.158156
vt 0.949553 0.116663
vt 0.528269 0.158156
vt 0.919706 0.080294
vt 0.580294 0.080294
vt 0.883337 0.050447
vt 0.616663 0.050447
vt 0.841844 0.028269
vt 0.796822 0.014612
vt 0.658156 0.028269
vt 0.750000 0.010000
vt 0.703178 0.014612
vt 0.550447 0.116663
vt 0.514612 0.296822
vn -0.2062 0.0959 -0.9738
vn -0.3065 0.2763 -0.9109
vn -0.3921 0.4337 -0.8113
vn -0.4613 0.5629 -0.6858
vn -0.5148 0.6627 -0.5439
vn -0.5539 0.7343 -0.3925
vn -0.5803 0.7793 -0.2364
vn -0.5953 0.7996 -0.0788
vn -0.5993 0.7966 0.0785
vn -0.5925 0.7709 0.2338
vn -0.5750 0.7216 0.3857
vn -0.5458 0.6477 0.5316
vn -0.5037 0.5480 0.6678
vn -0.4468 0.4217 0.7890
vn -0.3740 0.2692 0.8875
vn -0.2849 0.0940 0.9539
vn -0.1819 -0.0964 0.9786
vn -0.0703 -0.2896 0.9546
vn 0.0421 -0.4710 0.8811
vn 0.1466 -0.6275 0.7647
vn 0.2362 -0.7511 0.6164
vn 0.3065 -0.8395 0.4487
vn 0.3560 -0.8942 0.2713
vn 0.3847 -0.9186 0.0905
vn 0.3926 -0.9153 -0.0902
vn 0.3797 -0.8853 -0.2685
vn 0.3463 -0.8273 -0.4422
vn 0.2921 -0.7393 -0.6067
vn 0.2173 -0.6192 -0.7545
vn 0.1240 -0.4678 -0.8751
vn -0.8461 -0.5330 -0.0000
vn 0.0171 -0.2902 -0.9568
vn -0.0958 -0.0976 -0.9906
vn 1.0000 0.0000 0.0000
vn 0.0197 -0.1846 -0.9826
vn 0.0458 -0.5002 -0.8647
vn 0.0699 -0.7121 -0.6986
vn 0.0901 -0.8393 -0.5362
vn 0.1062 -0.9134 -0.3930
vn 0.1186 -0.9561 -0.2680
vn 0.1276 -0.9795 -0.1558
vn 0.1333 -0.9898 -0.0511
vn 0.1357 -0.9894 0.0511
vn 0.1314 -0.9790 0.1557
vn 0.1251 -0.9553 0.2678
vn 0.1156 -0.9124 0.3926
vn 0.1030 -0.8382 0.5355
vn 0.0869 -0.7112 0.6976
vn 0.0668 -0.4996 0.8637
vn 0.0436 -0.1844 0.9819
vn 0.0222 0.1846 0.9826
vn 0.0084 0.5007 0.8656
vn 0.0031 0.7139 0.7003
vn 0.0032 0.8427 0.5384
vn 0.0055 0.9185 0.3953
vn 0.0079 0.9629 0.2699
vn 0.0092 0.9875 0.1571
vn 0.0087 0.9986 0.0516
vn 0.0063 0.9986 -0.0516
vn 0.0019 0.9876 -0.1571
vn -0.0042 0.9629 -0.2699
vn -0.0042 0.9186 -0.3953
vn -0.0099 0.8426 -0.5384
vn -0.0140 0.7138 -0.7002
vn -0.0127 0.5007 -0.8655
vn -0.0018 0.1846 -0.9828
vn -0.1622 0.0127 -0.9867
vn -0.2559 0.1794 -0.9499
vn -0.3428 0.3378 -0.8766
vn -0.4202 0.4814 -0.7692
vn -0.4857 0.6040 -0.6319
vn -0.5376 0.7002 -0.4698
vn -0.5742 0.7658 -0.2894
vn -0.5948 0.7979 -0.0977
vn -0.5998 0.7942 0.0977
vn -0.5890 0.7547 0.2889
vn -0.5618 0.6819 0.4684
vn -0.5189 0.5789 0.6290
vn -0.4617 0.4504 0.7642
vn -0.3918 0.3022 0.8690
vn -0.3114 0.1407 0.9398
vn -0.2230 -0.0271 0.9744
vn -0.1293 -0.1946 0.9723
vn -0.0333 -0.3558 0.9340
vn 0.0618 -0.5049 0.8609
vn 0.1523 -0.6370 0.7557
vn 0.2340 -0.7476 0.6215
vn 0.3026 -0.8331 0.4630
vn 0.3539 -0.8905 0.2858
vn 0.3845 -0.9180 0.0967
vn 0.3929 -0.9145 -0.0968
vn 0.3786 -0.8799 -0.2871
vn 0.3419 -0.8158 -0.4664
vn 0.2851 -0.7244 -0.6277
vn 0.2118 -0.6084 -0.7648
vn 0.1261 -0.4718 -0.8726
vn 0.0325 -0.3191 -0.9472
vn -0.0649 -0.1556 -0.9857
vn 0.0152 -0.0980 -0.9951
vn 0.0328 -0.2901 -0.9564
vn 0.0532 -0.4707 -0.8807
vn 0.0746 -0.6326 -0.7709
vn 0.0951 -0.7695 -0.6315
vn 0.1127 -0.8763 -0.4684
vn 0.1259 -0.9493 -0.2880
vn 0.1335 -0.9863 -0.0971
vn 0.1348 -0.9861 0.0971
vn 0.1328 -0.9485 0.2877
vn 0.1240 -0.8751 0.4678
vn 0.1103 -0.7683 0.6305
vn 0.0932 -0.6316 0.7696
vn 0.0746 -0.4701 0.8795
vn 0.0561 -0.2898 0.9554
vn 0.0395 -0.0979 0.9944
vn 0.0259 0.0980 0.9949
vn 0.0161 0.2902 0.9568
vn 0.0100 0.4714 0.8819
vn 0.0072 0.6344 0.7730
vn 0.0067 0.7730 0.6344
vn 0.0074 0.8819 0.4714
vn 0.0083 0.9569 0.2903
vn 0.0083 0.9952 0.0980
vn 0.0069 0.9952 -0.0980
vn 0.0040 0.9569 -0.2903
vn 0.0002 0.8819 -0.4714
vn -0.0088 0.7730 -0.6344
vn -0.0117 0.6343 -0.7730
vn -0.0115 0.4714 -0.8819
vn -0.0073 0.2903 -0.9569
vn 0.0017 0.0980 -0.9952
s off
f 65/1/1 4/2/1 66/3/1
f 66/3/2 6/4/2 67/5/2
f 67/5/3 8/6/3 68/7/3
f 68/7/4 10/8/4 69/9/4
f 69/9/5 12/10/5 70/11/5
f 70/11/6 14/12/6 71/13/6
f 71/13/7 16/14/7 72/15/7
f 72/15/8 18/16/8 73/17/8
f 18/16/9 74/18/9 73/17/9
f 20/19/10 75/20/10 74/18/10
f 22/21/11 76/22/11 75/20/11
f 24/23/12 77/24/12 76/22/12
f 26/25/13 78/26/13 77/24/13
f 28/27/14 79/28/14 78/26/14
f 30/29/15 80/30/15 79/28/15
f 32/31/16 81/32/16 80/30/16
f 34/33/17 82/34/17 81/32/17
f 36/35/18 83/36/18 82/34/18
f 38/37/19 84/38/19 83/36/19
f 40/39/20 85/40/20 84/38/20
f 42/41/21 86/42/21 85/40/21
f 44/43/22 87/44/22 86/42/22
f 46/45/23 88/46/23 87/44/23
f 48/47/24 89/48/24 88/46/24
f 89/48/25 52/49/25 90/50/25
f 90/50/26 54/51/26 91/52/26
f 91/52/27 56/53/27 92/54/27
f 92/54/28 58/55/28 93/56/28
f 93/56/29 60/57/29 94/58/29
f 94/58/30 62/59/30 95/60/30
f 10/61/31 8/62/31 58/63/31
f 95/60/32 64/64/32 96/65/32
f 96/65/33 2/66/33 65/67/33
f 59/68/34 61/69/34 7/70/34
f 63/71/35 65/67/35 1/72/35
f 61/73/36 96/65/36 63/71/36
f 59/74/37 95/60/37 61/73/37
f 57/75/38 94/58/38 59/74/38
f 55/76/39 93/56/39 57/75/39
f 53/77/40 92/54/40 55/76/40
f 51/78/41 91/52/41 53/77/41
f 49/79/42 90/50/42 51/78/42
f 47/80/43 89/48/43 49/79/43
f 87/44/44 47/80/44 45/81/44
f 86/42/45 45/81/45 43/82/45
f 85/40/46 43/82/46 41/83/46
f 84/38/47 41/83/47 39/84/47
f 83/36/48 39/84/48 37/85/48
f 82/34/49 37/85/49 35/86/49
f 81/32/50 35/86/50 33/87/50
f 80/30/51 33/87/51 31/88/51
f 79/28/52 31/88/52 29/89/52
f 78/26/53 29/89/53 27/90/53
f 77/24/54 27/90/54 25/91/54
f 76/22/55 25/91/55 23/92/55
f 75/20/56 23/92/56 21/93/56
f 74/18/57 21/93/57 19/94/57
f 73/17/58 19/94/58 17/95/58
f 72/15/59 17/95/59 15/96/59
f 71/13/60 15/96/60 13/97/60
f 70/11/61 13/97/61 11/98/61
f 9/99/62 70/11/62 11/98/62
f 7/100/63 69/9/63 9/99/63
f 5/101/64 68/7/64 7/100/64
f 3/102/65 67/5/65 5/101/65
f 1/103/66 66/3/66 3/102/66
f 65/1/67 2/104/67 4/2/67
f 66/3/68 4/2/68 6/4/68
f 67/5/69 6/4/69 8/6/69
f 68/7/70 8/6/70 10/8/70
f 69/9/71 10/8/71 12/10/71
f 70/11/72 12/10/72 14/12/72
f 71/13/73 14/12/73 16/14/73
f 72/15/74 16/14/74 18/16/74
f 18/16/75 20/19/75 74/18/75
f 20/19/76 22/21/76 75/20/76
f 22/21/77 24/23/77 76/22/77
f 24/23/78 26/25/78 77/24/78
f 26/25/79 28/27/79 78/26/79
f 28/27/80 30/29/80 79/28/80
f 30/29/81 32/31/81 80/30/81
f 32/31/82 34/33/82 81/32/82
f 34/33/83 36/35/83 82/34/83
f 36/35/84 38/37/84 83/36/84
f 38/37/85 40/39/85 84/38/85
f 40/39/86 42/41/86 85/40/86
f 42/41/87 44/43/87 86/42/87
f 44/43/88 46/45/88 87/44/88
f 46/45/89 48/47/89 88/46/89
f 48/47/90 50/105/90 89/48/90
f 89/48/91 50/105/91 52/49/91
f 90/50/92 52/49/92 54/51/92
f 91/52/93 54/51/93 56/53/93
f 92/54/94 56/53/94 58/55/94
f 93/56/95 58/55/95 60/57/95
f 94/58/96 60/57/96 62/59/96
f 6/106/31 4/107/31 62/108/31
f 4/107/31 2/109/31 64/110/31
f 62/108/31 4/107/31 64/110/31
f 62/108/31 60/111/31 6/106/31
f 60/111/31 58/63/31 8/62/31
f 6/106/31 60/111/31 8/62/31
f 58/63/31 56/112/31 10/61/31
f 56/112/31 54/113/31 12/114/31
f 10/61/31 56/112/31 12/114/31
f 54/113/31 52/115/31 16/116/31
f 52/115/31 50/117/31 18/118/31
f 50/117/31 48/119/31 20/120/31
f 48/119/31 46/121/31 22/122/31
f 46/121/31 44/123/31 22/122/31
f 44/123/31 42/124/31 24/125/31
f 22/122/31 44/123/31 24/125/31
f 42/124/31 40/126/31 26/127/31
f 40/126/31 38/128/31 28/129/31
f 26/127/31 40/126/31 28/129/31
f 38/128/31 36/130/31 30/131/31
f 36/130/31 34/132/31 32/133/31
f 30/131/31 36/130/31 32/133/31
f 30/131/31 28/129/31 38/128/31
f 26/127/31 24/125/31 42/124/31
f 22/122/31 20/120/31 48/119/31
f 20/120/31 18/118/31 50/117/31
f 18/118/31 16/116/31 52/115/31
f 16/116/31 14/134/31 54/113/31
f 14/134/31 12/114/31 54/113/31
f 95/60/97 62/59/97 64/64/97
f 96/65/98 64/64/98 2/66/98
f 63/135/34 1/136/34 3/137/34
f 3/137/34 5/138/34 63/135/34
f 5/138/34 7/70/34 61/69/34
f 63/135/34 5/138/34 61/69/34
f 7/70/34 9/139/34 57/140/34
f 9/139/34 11/141/34 55/142/34
f 11/141/34 13/143/34 55/142/34
f 13/143/34 15/144/34 53/145/34
f 55/142/34 13/143/34 53/145/34
f 15/144/34 17/146/34 49/147/34
f 17/146/34 19/148/34 47/149/34
f 19/148/34 21/150/34 47/149/34
f 21/150/34 23/151/34 45/152/34
f 47/149/34 21/150/34 45/152/34
f 23/151/34 25/153/34 41/154/34
f 25/153/34 27/155/34 39/156/34
f 27/155/34 29/157/34 39/156/34
f 29/157/34 31/158/34 37/159/34
f 39/156/34 29/157/34 37/159/34
f 31/158/34 33/160/34 35/161/34
f 35/161/34 37/159/34 31/158/34
f 39/156/34 41/154/34 25/153/34
f 41/154/34 43/162/34 23/151/34
f 43/162/34 45/152/34 23/151/34
f 47/149/34 49/147/34 17/146/34
f 49/147/34 51/163/34 15/144/34
f 51/163/34 53/145/34 15/144/34
f 55/142/34 57/140/34 9/139/34
f 57/140/34 59/68/34 7/70/34
f 63/71/99 96/65/99 65/67/99
f 61/73/100 95/60/100 96/65/100
f 59/74/101 94/58/101 95/60/101
f 57/75/102 93/56/102 94/58/102
f 55/76/103 92/54/103 93/56/103
f 53/77/104 91/52/104 92/54/104
f 51/78/105 90/50/105 91/52/105
f 49/79/106 89/48/106 90/50/106
f 47/80/107 88/46/107 89/48/107
f 87/44/108 88/46/108 47/80/108
f 86/42/109 87/44/109 45/81/109
f 85/40/110 86/42/110 43/82/110
f 84/38/111 85/40/111 41/83/111
f 83/36/112 84/38/112 39/84/112
f 82/34/113 83/36/113 37/85/113
f 81/32/114 82/34/114 35/86/114
f 80/30/115 81/32/115 33/87/115
f 79/28/116 80/30/116 31/88/116
f 78/26/117 79/28/117 29/89/117
f 77/24/118 78/26/118 27/90/118
f 76/22/119 77/24/119 25/91/119
f 75/20/120 76/22/120 23/92/120
f 74/18/121 75/20/121 21/93/121
f 73/17/122 74/18/122 19/94/122
f 72/15/123 73/17/123 17/95/123
f 71/13/124 72/15/124 15/96/124
f 70/11/125 71/13/125 13/97/125
f 9/99/126 69/9/126 70/11/126
f 7/100/127 68/7/127 69/9/127
f 5/101/128 67/5/128 68/7/128
f 3/102/129 66/3/129 67/5/129
f 1/103/130 65/1/130 66/3/130
