# Blender v2.82 (sub 7) OBJ File: ''
# www.blender.org
mtllib Hat_FancyMan_Collision.mtl
o Cube_Cube.001
v -2.007367 -2.782212 3.208967
v -1.689888 1.759525 1.583820
v -2.740308 -2.396610 -3.167339
v -1.747174 1.862053 -1.632799
v 2.842628 -2.255209 2.853035
v 1.709582 1.661825 1.656051
v 2.939791 -2.255209 -2.729322
v 1.586339 1.821062 -1.717502
v -2.007367 -0.947323 2.007367
v -1.888602 -1.062382 -2.003050
v 2.007367 -1.192378 -2.007367
v 2.007367 -1.183471 2.007367
vt 0.625000 0.000000
vt 0.500000 0.250000
vt 0.500000 0.000000
vt 0.625000 0.500000
vt 0.500000 0.500000
vt 0.625000 0.750000
vt 0.500000 0.750000
vt 0.500000 1.000000
vt 0.375000 0.500000
vt 0.125000 0.750000
vt 0.125000 0.500000
vt 0.875000 0.750000
vt 0.375000 1.000000
vt 0.375000 0.750000
vt 0.375000 0.250000
vt 0.375000 0.000000
vt 0.625000 0.250000
vt 0.625000 1.000000
vt 0.875000 0.500000
vn -0.9932 0.1114 -0.0326
vn 0.0021 0.0960 -0.9954
vn 0.9946 0.1041 -0.0002
vn 0.0073 0.1233 0.9923
vn 0.0297 -0.9975 -0.0637
vn 0.0277 0.9986 0.0461
vn -0.0090 0.6151 0.7884
vn 0.7834 0.6213 0.0136
vn 0.0475 0.5895 -0.8064
vn -0.8830 0.4513 0.1288
vn -0.9988 0.0459 0.0192
vn -0.0236 0.1267 -0.9917
vn 0.9896 0.1411 -0.0295
vn -0.0165 0.1565 0.9875
vn 0.1082 -0.9941 0.0019
vn 0.0131 0.9994 0.0316
vn 0.0322 0.5476 0.8361
vn 0.7512 0.6600 -0.0015
vn 0.0208 0.6498 -0.7598
vn -0.9994 -0.0190 -0.0291
usemtl None
s off
f 2/1/1 10/2/1 9/3/1
f 10/2/2 8/4/2 11/5/2
f 11/5/3 6/6/3 12/7/3
f 6/6/4 9/8/4 12/7/4
f 7/9/5 1/10/5 3/11/5
f 8/4/6 2/12/6 6/6/6
f 12/7/7 1/13/7 5/14/7
f 7/9/8 12/7/8 5/14/8
f 3/15/9 11/5/9 7/9/9
f 1/16/10 10/2/10 3/15/10
f 2/1/11 4/17/11 10/2/11
f 10/2/12 4/17/12 8/4/12
f 11/5/13 8/4/13 6/6/13
f 6/6/14 2/18/14 9/8/14
f 7/9/15 5/14/15 1/10/15
f 8/4/16 4/19/16 2/12/16
f 12/7/17 9/8/17 1/13/17
f 7/9/18 11/5/18 12/7/18
f 3/15/19 10/2/19 11/5/19
f 1/16/20 9/3/20 10/2/20
